<?xml version="1.0" encoding="UTF-8" standalone="no"?>
<!DOCTYPE svg PUBLIC "-//W3C//DTD SVG 1.1//EN"
 "http://www.w3.org/Graphics/SVG/1.1/DTD/svg11.dtd">
<!-- Generated by graphviz version 2.47.0 (20210316.0004)
 -->
<!-- Title: dependencies Pages: 1 -->
<svg width="504pt" height="211pt"
 viewBox="0.00 0.00 504.00 211.00" xmlns="http://www.w3.org/2000/svg" xmlns:xlink="http://www.w3.org/1999/xlink">
<g id="graph0" class="graph" transform="scale(1 1) rotate(0) translate(4 207)">
<title>dependencies</title>
<polygon fill="white" stroke="transparent" points="-4,4 -4,-207 500,-207 500,4 -4,4"/>
<text text-anchor="start" x="227.01" y="-42.4" font-family="Times-12" font-weight="bold" font-size="14.00">Legend</text>
<polygon fill="#ffffb3" stroke="transparent" points="14,-10 14,-30 34,-30 34,-10 14,-10"/>
<text text-anchor="start" x="37.63" y="-15.4" font-family="Times-12" font-size="14.00"> &#160;Declarations</text>
<polygon fill="#8dd3c7" stroke="transparent" points="127,-10 127,-30 147,-30 147,-10 127,-10"/>
<text text-anchor="start" x="150.73" y="-15.4" font-family="Times-12" font-size="14.00"> &#160;Module</text>
<polygon fill="#80b1d3" stroke="transparent" points="213,-10 213,-30 233,-30 233,-10 213,-10"/>
<text text-anchor="start" x="236.78" y="-15.4" font-family="Times-12" font-size="14.00"> &#160;Bootstrap</text>
<polygon fill="#fdb462" stroke="transparent" points="310,-10 310,-30 330,-30 330,-10 310,-10"/>
<text text-anchor="start" x="333.67" y="-15.4" font-family="Times-12" font-size="14.00"> &#160;Providers</text>
<polygon fill="#fb8072" stroke="transparent" points="406,-10 406,-30 426,-30 426,-10 406,-10"/>
<text text-anchor="start" x="429.73" y="-15.4" font-family="Times-12" font-size="14.00"> &#160;Exports</text>
<g id="clust1" class="cluster">
<title>cluster_MealRecoModule</title>
<polygon fill="none" stroke="black" stroke-dasharray="1,5" points="83,-70 83,-195 413,-195 413,-70 83,-70"/>
</g>
<g id="clust6" class="cluster">
<title>cluster_MealRecoModule_providers</title>
<polygon fill="none" stroke="black" points="229,-78 229,-130 405,-130 405,-78 229,-78"/>
</g>
<g id="clust3" class="cluster">
<title>cluster_MealRecoModule_imports</title>
<polygon fill="none" stroke="black" points="91,-78 91,-130 221,-130 221,-78 91,-78"/>
</g>
<!-- UserInfosModule -->
<g id="node1" class="node">
<title>UserInfosModule</title>
<polygon fill="#8dd3c7" stroke="black" points="213.24,-122 210.24,-126 189.24,-126 186.24,-122 98.76,-122 98.76,-86 213.24,-86 213.24,-122"/>
<text text-anchor="middle" x="156" y="-99.8" font-family="Times,serif" font-size="14.00">UserInfosModule</text>
</g>
<!-- MealRecoModule -->
<g id="node2" class="node">
<title>MealRecoModule</title>
<polygon fill="#8dd3c7" stroke="black" points="294.58,-187 291.58,-191 270.58,-191 267.58,-187 177.42,-187 177.42,-151 294.58,-151 294.58,-187"/>
<text text-anchor="middle" x="236" y="-164.8" font-family="Times,serif" font-size="14.00">MealRecoModule</text>
</g>
<!-- UserInfosModule&#45;&gt;MealRecoModule -->
<g id="edge1" class="edge">
<title>UserInfosModule&#45;&gt;MealRecoModule</title>
<path fill="none" stroke="black" d="M195.42,-122.11C195.42,-122.11 195.42,-140.99 195.42,-140.99"/>
<polygon fill="black" stroke="black" points="191.92,-140.99 195.42,-150.99 198.92,-140.99 191.92,-140.99"/>
</g>
<!-- MealRecoService -->
<g id="node3" class="node">
<title>MealRecoService</title>
<ellipse fill="#fdb462" stroke="black" cx="317" cy="-104" rx="79.85" ry="18"/>
<text text-anchor="middle" x="317" y="-99.8" font-family="Times,serif" font-size="14.00">MealRecoService</text>
</g>
<!-- MealRecoService&#45;&gt;MealRecoModule -->
<g id="edge2" class="edge">
<title>MealRecoService&#45;&gt;MealRecoModule</title>
<path fill="none" stroke="black" d="M265.93,-118.1C265.93,-118.1 265.93,-140.72 265.93,-140.72"/>
<polygon fill="black" stroke="black" points="262.43,-140.72 265.93,-150.72 269.43,-140.72 262.43,-140.72"/>
</g>
</g>
</svg>
