<?xml version="1.0" encoding="UTF-8" standalone="no"?>
<!DOCTYPE svg PUBLIC "-//W3C//DTD SVG 1.1//EN"
 "http://www.w3.org/Graphics/SVG/1.1/DTD/svg11.dtd">
<!-- Generated by graphviz version 2.47.0 (20210316.0004)
 -->
<!-- Title: dependencies Pages: 1 -->
<svg width="4523pt" height="439pt"
 viewBox="0.00 0.00 4523.00 439.00" xmlns="http://www.w3.org/2000/svg" xmlns:xlink="http://www.w3.org/1999/xlink">
<g id="graph0" class="graph" transform="scale(1 1) rotate(0) translate(4 435)">
<title>dependencies</title>
<polygon fill="white" stroke="transparent" points="-4,4 -4,-435 4519,-435 4519,4 -4,4"/>
<text text-anchor="start" x="2236.51" y="-42.4" font-family="Times-12" font-weight="bold" font-size="14.00">Legend</text>
<polygon fill="#ffffb3" stroke="transparent" points="2023.5,-10 2023.5,-30 2043.5,-30 2043.5,-10 2023.5,-10"/>
<text text-anchor="start" x="2047.13" y="-15.4" font-family="Times-12" font-size="14.00"> &#160;Declarations</text>
<polygon fill="#8dd3c7" stroke="transparent" points="2136.5,-10 2136.5,-30 2156.5,-30 2156.5,-10 2136.5,-10"/>
<text text-anchor="start" x="2160.23" y="-15.4" font-family="Times-12" font-size="14.00"> &#160;Module</text>
<polygon fill="#80b1d3" stroke="transparent" points="2222.5,-10 2222.5,-30 2242.5,-30 2242.5,-10 2222.5,-10"/>
<text text-anchor="start" x="2246.28" y="-15.4" font-family="Times-12" font-size="14.00"> &#160;Bootstrap</text>
<polygon fill="#fdb462" stroke="transparent" points="2319.5,-10 2319.5,-30 2339.5,-30 2339.5,-10 2319.5,-10"/>
<text text-anchor="start" x="2343.17" y="-15.4" font-family="Times-12" font-size="14.00"> &#160;Providers</text>
<polygon fill="#fb8072" stroke="transparent" points="2415.5,-10 2415.5,-30 2435.5,-30 2435.5,-10 2415.5,-10"/>
<text text-anchor="start" x="2439.23" y="-15.4" font-family="Times-12" font-size="14.00"> &#160;Exports</text>
<g id="clust1" class="cluster">
<title>cluster_AppModule</title>
<polygon fill="none" stroke="black" stroke-dasharray="1,5" points="754,-70 754,-423 2419,-423 2419,-70 754,-70"/>
</g>
<g id="clust3" class="cluster">
<title>cluster_AppModule_imports</title>
<polygon fill="none" stroke="black" points="854,-146 854,-415 2411,-415 2411,-146 854,-146"/>
</g>
<g id="clust6" class="cluster">
<title>cluster_AppModule_providers</title>
<polygon fill="none" stroke="black" points="762,-78 762,-130 1060,-130 1060,-78 762,-78"/>
</g>
<g id="clust7" class="cluster">
<title>cluster_AuthModule</title>
<polygon fill="none" stroke="black" stroke-dasharray="1,5" points="332,-279 332,-347 746,-347 746,-279 332,-279"/>
</g>
<g id="clust12" class="cluster">
<title>cluster_AuthModule_providers</title>
<polygon fill="none" stroke="black" points="340,-287 340,-339 738,-339 738,-287 340,-287"/>
</g>
<g id="clust13" class="cluster">
<title>cluster_ChatModule</title>
<polygon fill="none" stroke="black" stroke-dasharray="1,5" points="2427,-355 2427,-423 2695,-423 2695,-355 2427,-355"/>
</g>
<g id="clust16" class="cluster">
<title>cluster_ChatModule_exports</title>
<polygon fill="none" stroke="black" points="2575,-363 2575,-415 2687,-415 2687,-363 2575,-363"/>
</g>
<g id="clust18" class="cluster">
<title>cluster_ChatModule_providers</title>
<polygon fill="none" stroke="black" points="2435,-363 2435,-415 2567,-415 2567,-363 2435,-363"/>
</g>
<g id="clust19" class="cluster">
<title>cluster_ExercisesLibraryModule</title>
<polygon fill="none" stroke="black" stroke-dasharray="1,5" points="2725,-70 2725,-138 2969,-138 2969,-70 2725,-70"/>
</g>
<g id="clust24" class="cluster">
<title>cluster_ExercisesLibraryModule_providers</title>
<polygon fill="none" stroke="black" points="2733,-78 2733,-130 2961,-130 2961,-78 2733,-78"/>
</g>
<g id="clust25" class="cluster">
<title>cluster_FeedbackUserModule</title>
<polygon fill="none" stroke="black" stroke-dasharray="1,5" points="2977,-70 2977,-138 3199,-138 3199,-70 2977,-70"/>
</g>
<g id="clust30" class="cluster">
<title>cluster_FeedbackUserModule_providers</title>
<polygon fill="none" stroke="black" points="2985,-78 2985,-130 3191,-130 3191,-78 2985,-78"/>
</g>
<g id="clust31" class="cluster">
<title>cluster_FileModule</title>
<polygon fill="none" stroke="black" stroke-dasharray="1,5" points="2427,-203 2427,-271 2677,-271 2677,-203 2427,-203"/>
</g>
<g id="clust34" class="cluster">
<title>cluster_FileModule_exports</title>
<polygon fill="none" stroke="black" points="2569,-211 2569,-263 2669,-263 2669,-211 2569,-211"/>
</g>
<g id="clust36" class="cluster">
<title>cluster_FileModule_providers</title>
<polygon fill="none" stroke="black" points="2435,-211 2435,-263 2561,-263 2561,-211 2435,-211"/>
</g>
<g id="clust37" class="cluster">
<title>cluster_MealRecoModule</title>
<polygon fill="none" stroke="black" stroke-dasharray="1,5" points="2685,-203 2685,-271 2877,-271 2877,-203 2685,-203"/>
</g>
<g id="clust42" class="cluster">
<title>cluster_MealRecoModule_providers</title>
<polygon fill="none" stroke="black" points="2693,-211 2693,-263 2869,-263 2869,-211 2693,-211"/>
</g>
<g id="clust49" class="cluster">
<title>cluster_OpenffModule</title>
<polygon fill="none" stroke="black" stroke-dasharray="1,5" points="3207,-70 3207,-138 3373,-138 3373,-70 3207,-70"/>
</g>
<g id="clust54" class="cluster">
<title>cluster_OpenffModule_providers</title>
<polygon fill="none" stroke="black" points="3215,-78 3215,-130 3365,-130 3365,-78 3215,-78"/>
</g>
<g id="clust55" class="cluster">
<title>cluster_PreferencesModule</title>
<polygon fill="none" stroke="black" stroke-dasharray="1,5" points="3381,-70 3381,-138 3583,-138 3583,-70 3381,-70"/>
</g>
<g id="clust60" class="cluster">
<title>cluster_PreferencesModule_providers</title>
<polygon fill="none" stroke="black" points="3389,-78 3389,-130 3575,-130 3575,-78 3389,-78"/>
</g>
<g id="clust61" class="cluster">
<title>cluster_PrismaModule</title>
<polygon fill="none" stroke="black" stroke-dasharray="1,5" points="2427,-70 2427,-138 2717,-138 2717,-70 2427,-70"/>
</g>
<g id="clust64" class="cluster">
<title>cluster_PrismaModule_exports</title>
<polygon fill="none" stroke="black" points="2435,-78 2435,-130 2551,-130 2551,-78 2435,-78"/>
</g>
<g id="clust66" class="cluster">
<title>cluster_PrismaModule_providers</title>
<polygon fill="none" stroke="black" points="2559,-78 2559,-130 2709,-130 2709,-78 2559,-78"/>
</g>
<g id="clust67" class="cluster">
<title>cluster_ReportsModule</title>
<polygon fill="none" stroke="black" stroke-dasharray="1,5" points="3591,-70 3591,-138 3763,-138 3763,-70 3591,-70"/>
</g>
<g id="clust72" class="cluster">
<title>cluster_ReportsModule_providers</title>
<polygon fill="none" stroke="black" points="3599,-78 3599,-130 3755,-130 3755,-78 3599,-78"/>
</g>
<g id="clust73" class="cluster">
<title>cluster_StepsModule</title>
<polygon fill="none" stroke="black" stroke-dasharray="1,5" points="3771,-70 3771,-138 3925,-138 3925,-70 3771,-70"/>
</g>
<g id="clust78" class="cluster">
<title>cluster_StepsModule_providers</title>
<polygon fill="none" stroke="black" points="3779,-78 3779,-130 3917,-130 3917,-78 3779,-78"/>
</g>
<g id="clust79" class="cluster">
<title>cluster_TicketsModule</title>
<polygon fill="none" stroke="black" stroke-dasharray="1,5" points="3933,-70 3933,-138 4101,-138 4101,-70 3933,-70"/>
</g>
<g id="clust84" class="cluster">
<title>cluster_TicketsModule_providers</title>
<polygon fill="none" stroke="black" points="3941,-78 3941,-130 4093,-130 4093,-78 3941,-78"/>
</g>
<g id="clust85" class="cluster">
<title>cluster_UserAdminModule</title>
<polygon fill="none" stroke="black" stroke-dasharray="1,5" points="4109,-70 4109,-138 4311,-138 4311,-70 4109,-70"/>
</g>
<g id="clust90" class="cluster">
<title>cluster_UserAdminModule_providers</title>
<polygon fill="none" stroke="black" points="4117,-78 4117,-130 4303,-130 4303,-78 4117,-78"/>
</g>
<g id="clust91" class="cluster">
<title>cluster_UserInfosModule</title>
<polygon fill="none" stroke="black" stroke-dasharray="1,5" points="8,-279 8,-347 324,-347 324,-279 8,-279"/>
</g>
<g id="clust94" class="cluster">
<title>cluster_UserInfosModule_exports</title>
<polygon fill="none" stroke="black" points="188,-287 188,-339 316,-339 316,-287 188,-287"/>
</g>
<g id="clust96" class="cluster">
<title>cluster_UserInfosModule_providers</title>
<polygon fill="none" stroke="black" points="16,-287 16,-339 180,-339 180,-287 16,-287"/>
</g>
<g id="clust97" class="cluster">
<title>cluster_WorkoutsModule</title>
<polygon fill="none" stroke="black" stroke-dasharray="1,5" points="4319,-70 4319,-138 4507,-138 4507,-70 4319,-70"/>
</g>
<g id="clust102" class="cluster">
<title>cluster_WorkoutsModule_providers</title>
<polygon fill="none" stroke="black" points="4327,-78 4327,-130 4499,-130 4499,-78 4327,-78"/>
</g>
<!-- AuthModule -->
<g id="node1" class="node">
<title>AuthModule</title>
<polygon fill="#8dd3c7" stroke="black" points="951.55,-407 948.55,-411 927.55,-411 924.55,-407 864.45,-407 864.45,-371 951.55,-371 951.55,-407"/>
<text text-anchor="middle" x="908" y="-384.8" font-family="Times,serif" font-size="14.00">AuthModule</text>
</g>
<!-- AppModule -->
<g id="node17" class="node">
<title>AppModule</title>
<polygon fill="#8dd3c7" stroke="black" points="845.66,-407 842.66,-411 821.66,-411 818.66,-407 762.34,-407 762.34,-371 845.66,-371 845.66,-407"/>
<text text-anchor="middle" x="804" y="-384.8" font-family="Times,serif" font-size="14.00">AppModule</text>
</g>
<!-- AuthModule&#45;&gt;AppModule -->
<g id="edge1" class="edge">
<title>AuthModule&#45;&gt;AppModule</title>
<path fill="none" stroke="black" d="M864.2,-389C864.2,-389 855.76,-389 855.76,-389"/>
<polygon fill="black" stroke="black" points="855.76,-385.5 845.76,-389 855.76,-392.5 855.76,-385.5"/>
</g>
<!-- ChatModule -->
<g id="node2" class="node">
<title>ChatModule</title>
<polygon fill="#8dd3c7" stroke="black" points="1304.99,-331 1301.99,-335 1280.99,-335 1277.99,-331 1219.01,-331 1219.01,-295 1304.99,-295 1304.99,-331"/>
<text text-anchor="middle" x="1262" y="-308.8" font-family="Times,serif" font-size="14.00">ChatModule</text>
</g>
<!-- ChatModule&#45;&gt;AuthModule -->
<g id="edge20" class="edge">
<title>ChatModule&#45;&gt;AuthModule</title>
<path fill="none" stroke="black" d="M1262,-331.2C1262,-355.36 1262,-395 1262,-395 1262,-395 961.76,-395 961.76,-395"/>
<polygon fill="black" stroke="black" points="961.76,-391.5 951.76,-395 961.76,-398.5 961.76,-391.5"/>
</g>
<!-- ChatModule&#45;&gt;AppModule -->
<g id="edge2" class="edge">
<title>ChatModule&#45;&gt;AppModule</title>
<path fill="none" stroke="black" d="M1240.5,-331.21C1240.5,-336.55 1240.5,-341 1240.5,-341 1240.5,-341 841.86,-341 841.86,-341 841.86,-341 841.86,-360.85 841.86,-360.85"/>
<polygon fill="black" stroke="black" points="838.36,-360.85 841.86,-370.85 845.36,-360.85 838.36,-360.85"/>
</g>
<!-- ChatGateway  -->
<g id="node23" class="node">
<title>ChatGateway </title>
<polygon fill="#fb8072" stroke="black" points="2678.69,-407 2583.31,-407 2583.31,-371 2678.69,-371 2678.69,-407"/>
<text text-anchor="middle" x="2631" y="-384.8" font-family="Times,serif" font-size="14.00">ChatGateway </text>
</g>
<!-- ChatModule&#45;&gt;ChatGateway  -->
<g id="edge25" class="edge">
<title>ChatModule&#45;&gt;ChatGateway </title>
<path fill="none" stroke="black" stroke-dasharray="5,2" d="M1305.32,-313C1537.29,-313 2621.89,-313 2621.89,-313 2621.89,-313 2621.89,-360.99 2621.89,-360.99"/>
<polygon fill="black" stroke="black" points="2618.39,-360.99 2621.89,-370.99 2625.39,-360.99 2618.39,-360.99"/>
</g>
<!-- ExercisesLibraryModule -->
<g id="node3" class="node">
<title>ExercisesLibraryModule</title>
<polygon fill="#8dd3c7" stroke="black" points="1262.67,-190 1259.67,-194 1238.67,-194 1235.67,-190 1107.33,-190 1107.33,-154 1262.67,-154 1262.67,-190"/>
<text text-anchor="middle" x="1185" y="-167.8" font-family="Times,serif" font-size="14.00">ExercisesLibraryModule</text>
</g>
<!-- ExercisesLibraryModule&#45;&gt;AppModule -->
<g id="edge3" class="edge">
<title>ExercisesLibraryModule&#45;&gt;AppModule</title>
<path fill="none" stroke="black" d="M1147.89,-190.06C1147.89,-194.49 1147.89,-198 1147.89,-198 1147.89,-198 790.23,-198 790.23,-198 790.23,-198 790.23,-360.69 790.23,-360.69"/>
<polygon fill="black" stroke="black" points="786.73,-360.69 790.23,-370.69 793.73,-360.69 786.73,-360.69"/>
</g>
<!-- FeedbackUserModule -->
<g id="node4" class="node">
<title>FeedbackUserModule</title>
<polygon fill="#8dd3c7" stroke="black" points="1419.62,-190 1416.62,-194 1395.62,-194 1392.62,-190 1280.38,-190 1280.38,-154 1419.62,-154 1419.62,-190"/>
<text text-anchor="middle" x="1350" y="-167.8" font-family="Times,serif" font-size="14.00">FeedbackUserModule</text>
</g>
<!-- FeedbackUserModule&#45;&gt;AppModule -->
<g id="edge4" class="edge">
<title>FeedbackUserModule&#45;&gt;AppModule</title>
<path fill="none" stroke="black" d="M1292.59,-190.2C1292.59,-196.03 1292.59,-201 1292.59,-201 1292.59,-201 794.21,-201 794.21,-201 794.21,-201 794.21,-360.97 794.21,-360.97"/>
<polygon fill="black" stroke="black" points="790.71,-360.97 794.21,-370.97 797.71,-360.97 790.71,-360.97"/>
</g>
<!-- FileModule -->
<g id="node5" class="node">
<title>FileModule</title>
<polygon fill="#8dd3c7" stroke="black" points="2402.83,-190 2399.83,-194 2378.83,-194 2375.83,-190 2321.17,-190 2321.17,-154 2402.83,-154 2402.83,-190"/>
<text text-anchor="middle" x="2362" y="-167.8" font-family="Times,serif" font-size="14.00">FileModule</text>
</g>
<!-- UserInfosModule -->
<g id="node15" class="node">
<title>UserInfosModule</title>
<polygon fill="#8dd3c7" stroke="black" points="1188.24,-255 1185.24,-259 1164.24,-259 1161.24,-255 1073.76,-255 1073.76,-219 1188.24,-219 1188.24,-255"/>
<text text-anchor="middle" x="1131" y="-232.8" font-family="Times,serif" font-size="14.00">UserInfosModule</text>
</g>
<!-- FileModule&#45;&gt;UserInfosModule -->
<g id="edge43" class="edge">
<title>FileModule&#45;&gt;UserInfosModule</title>
<path fill="none" stroke="black" d="M2341.67,-190.03C2341.67,-206.4 2341.67,-228 2341.67,-228 2341.67,-228 1198.58,-228 1198.58,-228"/>
<polygon fill="black" stroke="black" points="1198.58,-224.5 1188.58,-228 1198.58,-231.5 1198.58,-224.5"/>
</g>
<!-- FileModule&#45;&gt;AppModule -->
<g id="edge5" class="edge">
<title>FileModule&#45;&gt;AppModule</title>
<path fill="none" stroke="black" d="M2362,-190.49C2362,-222.31 2362,-284 2362,-284 2362,-284 833.92,-284 833.92,-284 833.92,-284 833.92,-360.71 833.92,-360.71"/>
<polygon fill="black" stroke="black" points="830.42,-360.71 833.92,-370.71 837.42,-360.71 830.42,-360.71"/>
</g>
<!-- FileService  -->
<g id="node27" class="node">
<title>FileService </title>
<polygon fill="#fb8072" stroke="black" points="2660.76,-255 2577.24,-255 2577.24,-219 2660.76,-219 2660.76,-255"/>
<text text-anchor="middle" x="2619" y="-232.8" font-family="Times,serif" font-size="14.00">FileService </text>
</g>
<!-- FileModule&#45;&gt;FileService  -->
<g id="edge29" class="edge">
<title>FileModule&#45;&gt;FileService </title>
<path fill="none" stroke="black" stroke-dasharray="5,2" d="M2402.72,-172C2475.19,-172 2619,-172 2619,-172 2619,-172 2619,-208.89 2619,-208.89"/>
<polygon fill="black" stroke="black" points="2615.5,-208.89 2619,-218.89 2622.5,-208.89 2615.5,-208.89"/>
</g>
<!-- MealRecoModule -->
<g id="node6" class="node">
<title>MealRecoModule</title>
<polygon fill="#8dd3c7" stroke="black" points="1200.58,-331 1197.58,-335 1176.58,-335 1173.58,-331 1083.42,-331 1083.42,-295 1200.58,-295 1200.58,-331"/>
<text text-anchor="middle" x="1142" y="-308.8" font-family="Times,serif" font-size="14.00">MealRecoModule</text>
</g>
<!-- MealRecoModule&#45;&gt;AppModule -->
<g id="edge6" class="edge">
<title>MealRecoModule&#45;&gt;AppModule</title>
<path fill="none" stroke="black" d="M1083.36,-307C994.99,-307 837.89,-307 837.89,-307 837.89,-307 837.89,-360.8 837.89,-360.8"/>
<polygon fill="black" stroke="black" points="834.39,-360.8 837.89,-370.8 841.39,-360.8 834.39,-360.8"/>
</g>
<!-- NutritionModule -->
<g id="node7" class="node">
<title>NutritionModule</title>
<polygon fill="#8dd3c7" stroke="black" points="972.38,-190 969.38,-194 948.38,-194 945.38,-190 861.62,-190 861.62,-154 972.38,-154 972.38,-190"/>
<text text-anchor="middle" x="917" y="-167.8" font-family="Times,serif" font-size="14.00">NutritionModule</text>
</g>
<!-- NutritionModule&#45;&gt;AppModule -->
<g id="edge7" class="edge">
<title>NutritionModule&#45;&gt;AppModule</title>
<path fill="none" stroke="black" d="M861.43,-172C824.33,-172 782.29,-172 782.29,-172 782.29,-172 782.29,-360.87 782.29,-360.87"/>
<polygon fill="black" stroke="black" points="778.79,-360.87 782.29,-370.87 785.79,-360.87 778.79,-360.87"/>
</g>
<!-- OpenffModule -->
<g id="node8" class="node">
<title>OpenffModule</title>
<polygon fill="#8dd3c7" stroke="black" points="1536.69,-190 1533.69,-194 1512.69,-194 1509.69,-190 1437.31,-190 1437.31,-154 1536.69,-154 1536.69,-190"/>
<text text-anchor="middle" x="1487" y="-167.8" font-family="Times,serif" font-size="14.00">OpenffModule</text>
</g>
<!-- OpenffModule&#45;&gt;AppModule -->
<g id="edge8" class="edge">
<title>OpenffModule&#45;&gt;AppModule</title>
<path fill="none" stroke="black" d="M1487,-190.01C1487,-216.02 1487,-261 1487,-261 1487,-261 818.03,-261 818.03,-261 818.03,-261 818.03,-360.93 818.03,-360.93"/>
<polygon fill="black" stroke="black" points="814.53,-360.93 818.03,-370.93 821.53,-360.93 814.53,-360.93"/>
</g>
<!-- PreferencesModule -->
<g id="node9" class="node">
<title>PreferencesModule</title>
<polygon fill="#8dd3c7" stroke="black" points="1787.33,-190 1784.33,-194 1763.33,-194 1760.33,-190 1662.67,-190 1662.67,-154 1787.33,-154 1787.33,-190"/>
<text text-anchor="middle" x="1725" y="-167.8" font-family="Times,serif" font-size="14.00">PreferencesModule</text>
</g>
<!-- PreferencesModule&#45;&gt;AppModule -->
<g id="edge9" class="edge">
<title>PreferencesModule&#45;&gt;AppModule</title>
<path fill="none" stroke="black" d="M1725,-190.04C1725,-197.75 1725,-205 1725,-205 1725,-205 798.18,-205 798.18,-205 798.18,-205 798.18,-360.68 798.18,-360.68"/>
<polygon fill="black" stroke="black" points="794.68,-360.68 798.18,-370.68 801.68,-360.68 794.68,-360.68"/>
</g>
<!-- PrismaModule -->
<g id="node10" class="node">
<title>PrismaModule</title>
<polygon fill="#8dd3c7" stroke="black" points="1089.43,-190 1086.43,-194 1065.43,-194 1062.43,-190 990.57,-190 990.57,-154 1089.43,-154 1089.43,-190"/>
<text text-anchor="middle" x="1040" y="-167.8" font-family="Times,serif" font-size="14.00">PrismaModule</text>
</g>
<!-- PrismaModule&#45;&gt;AppModule -->
<g id="edge10" class="edge">
<title>PrismaModule&#45;&gt;AppModule</title>
<path fill="none" stroke="black" d="M1032.21,-190.17C1032.21,-192.45 1032.21,-194 1032.21,-194 1032.21,-194 786.26,-194 786.26,-194 786.26,-194 786.26,-360.65 786.26,-360.65"/>
<polygon fill="black" stroke="black" points="782.76,-360.65 786.26,-370.65 789.76,-360.65 782.76,-360.65"/>
</g>
<!-- PrismaService  -->
<g id="node32" class="node">
<title>PrismaService </title>
<polygon fill="#fb8072" stroke="black" points="2543.36,-122 2442.64,-122 2442.64,-86 2543.36,-86 2543.36,-122"/>
<text text-anchor="middle" x="2493" y="-99.8" font-family="Times,serif" font-size="14.00">PrismaService </text>
</g>
<!-- PrismaModule&#45;&gt;PrismaService  -->
<g id="edge36" class="edge">
<title>PrismaModule&#45;&gt;PrismaService </title>
<path fill="none" stroke="black" stroke-dasharray="5,2" d="M1064.67,-153.78C1064.67,-133.63 1064.67,-104 1064.67,-104 1064.67,-104 2432.58,-104 2432.58,-104"/>
<polygon fill="black" stroke="black" points="2432.58,-107.5 2442.58,-104 2432.58,-100.5 2432.58,-107.5"/>
</g>
<!-- ReportsModule -->
<g id="node11" class="node">
<title>ReportsModule</title>
<polygon fill="#8dd3c7" stroke="black" points="1908.6,-190 1905.6,-194 1884.6,-194 1881.6,-190 1805.4,-190 1805.4,-154 1908.6,-154 1908.6,-190"/>
<text text-anchor="middle" x="1857" y="-167.8" font-family="Times,serif" font-size="14.00">ReportsModule</text>
</g>
<!-- ReportsModule&#45;&gt;AppModule -->
<g id="edge11" class="edge">
<title>ReportsModule&#45;&gt;AppModule</title>
<path fill="none" stroke="black" d="M1874.18,-190.46C1874.18,-220.83 1874.18,-278 1874.18,-278 1874.18,-278 829.94,-278 829.94,-278 829.94,-278 829.94,-360.67 829.94,-360.67"/>
<polygon fill="black" stroke="black" points="826.44,-360.67 829.94,-370.67 833.44,-360.67 826.44,-360.67"/>
</g>
<!-- ReportsModule&#45;&gt;AppModule -->
<g id="edge12" class="edge">
<title>ReportsModule&#45;&gt;AppModule</title>
<path fill="none" stroke="black" d="M1839.82,-190.06C1839.82,-219.11 1839.82,-273 1839.82,-273 1839.82,-273 825.97,-273 825.97,-273 825.97,-273 825.97,-360.88 825.97,-360.88"/>
<polygon fill="black" stroke="black" points="822.47,-360.87 825.97,-370.88 829.47,-360.88 822.47,-360.87"/>
</g>
<!-- StepsModule -->
<g id="node12" class="node">
<title>StepsModule</title>
<polygon fill="#8dd3c7" stroke="black" points="1644.88,-190 1641.88,-194 1620.88,-194 1617.88,-190 1555.12,-190 1555.12,-154 1644.88,-154 1644.88,-190"/>
<text text-anchor="middle" x="1600" y="-167.8" font-family="Times,serif" font-size="14.00">StepsModule</text>
</g>
<!-- StepsModule&#45;&gt;AppModule -->
<g id="edge13" class="edge">
<title>StepsModule&#45;&gt;AppModule</title>
<path fill="none" stroke="black" d="M1600,-190.32C1600,-217.92 1600,-267 1600,-267 1600,-267 822,-267 822,-267 822,-267 822,-361 822,-361"/>
<polygon fill="black" stroke="black" points="818.5,-361 822,-371 825.5,-361 818.5,-361"/>
</g>
<!-- TicketsModule -->
<g id="node13" class="node">
<title>TicketsModule</title>
<polygon fill="#8dd3c7" stroke="black" points="2027.26,-190 2024.26,-194 2003.26,-194 2000.26,-190 1926.74,-190 1926.74,-154 2027.26,-154 2027.26,-190"/>
<text text-anchor="middle" x="1977" y="-167.8" font-family="Times,serif" font-size="14.00">TicketsModule</text>
</g>
<!-- TicketsModule&#45;&gt;AppModule -->
<g id="edge14" class="edge">
<title>TicketsModule&#45;&gt;AppModule</title>
<path fill="none" stroke="black" d="M1977,-190.07C1977,-199.46 1977,-209 1977,-209 1977,-209 802.15,-209 802.15,-209 802.15,-209 802.15,-360.75 802.15,-360.75"/>
<polygon fill="black" stroke="black" points="798.65,-360.75 802.15,-370.75 805.65,-360.75 798.65,-360.75"/>
</g>
<!-- UserAdminModule -->
<g id="node14" class="node">
<title>UserAdminModule</title>
<polygon fill="#8dd3c7" stroke="black" points="2170.36,-190 2167.36,-194 2146.36,-194 2143.36,-190 2045.64,-190 2045.64,-154 2170.36,-154 2170.36,-190"/>
<text text-anchor="middle" x="2108" y="-167.8" font-family="Times,serif" font-size="14.00">UserAdminModule</text>
</g>
<!-- UserAdminModule&#45;&gt;AppModule -->
<g id="edge15" class="edge">
<title>UserAdminModule&#45;&gt;AppModule</title>
<path fill="none" stroke="black" d="M2108,-190.13C2108,-200.71 2108,-212 2108,-212 2108,-212 806.12,-212 806.12,-212 806.12,-212 806.12,-360.72 806.12,-360.72"/>
<polygon fill="black" stroke="black" points="802.62,-360.72 806.12,-370.72 809.62,-360.72 802.62,-360.72"/>
</g>
<!-- UserInfosModule&#45;&gt;ChatModule -->
<g id="edge24" class="edge">
<title>UserInfosModule&#45;&gt;ChatModule</title>
<path fill="none" stroke="black" d="M1188.47,-237C1215.03,-237 1240.79,-237 1240.79,-237 1240.79,-237 1240.79,-284.99 1240.79,-284.99"/>
<polygon fill="black" stroke="black" points="1237.29,-284.99 1240.79,-294.99 1244.29,-284.99 1237.29,-284.99"/>
</g>
<!-- UserInfosModule&#45;&gt;MealRecoModule -->
<g id="edge31" class="edge">
<title>UserInfosModule&#45;&gt;MealRecoModule</title>
<path fill="none" stroke="black" d="M1118.43,-255.01C1118.43,-255.01 1118.43,-284.85 1118.43,-284.85"/>
<polygon fill="black" stroke="black" points="1114.93,-284.85 1118.43,-294.85 1121.93,-284.85 1114.93,-284.85"/>
</g>
<!-- UserInfosModule&#45;&gt;AppModule -->
<g id="edge16" class="edge">
<title>UserInfosModule&#45;&gt;AppModule</title>
<path fill="none" stroke="black" d="M1073.6,-246C982.27,-246 814.06,-246 814.06,-246 814.06,-246 814.06,-360.89 814.06,-360.89"/>
<polygon fill="black" stroke="black" points="810.56,-360.89 814.06,-370.89 817.56,-360.89 810.56,-360.89"/>
</g>
<!-- UserInfoService  -->
<g id="node38" class="node">
<title>UserInfoService </title>
<polygon fill="#fb8072" stroke="black" points="307.73,-331 196.27,-331 196.27,-295 307.73,-295 307.73,-331"/>
<text text-anchor="middle" x="252" y="-308.8" font-family="Times,serif" font-size="14.00">UserInfoService </text>
</g>
<!-- UserInfosModule&#45;&gt;UserInfoService  -->
<g id="edge44" class="edge">
<title>UserInfosModule&#45;&gt;UserInfoService </title>
<path fill="none" stroke="black" stroke-dasharray="5,2" d="M1073.67,-237C878.5,-237 252,-237 252,-237 252,-237 252,-284.99 252,-284.99"/>
<polygon fill="black" stroke="black" points="248.5,-284.99 252,-294.99 255.5,-284.99 248.5,-284.99"/>
</g>
<!-- WorkoutsModule -->
<g id="node16" class="node">
<title>WorkoutsModule</title>
<polygon fill="#8dd3c7" stroke="black" points="2303.26,-190 2300.26,-194 2279.26,-194 2276.26,-190 2188.74,-190 2188.74,-154 2303.26,-154 2303.26,-190"/>
<text text-anchor="middle" x="2246" y="-167.8" font-family="Times,serif" font-size="14.00">WorkoutsModule</text>
</g>
<!-- WorkoutsModule&#45;&gt;AppModule -->
<g id="edge17" class="edge">
<title>WorkoutsModule&#45;&gt;AppModule</title>
<path fill="none" stroke="black" d="M2246,-190.15C2246,-202.27 2246,-216 2246,-216 2246,-216 810.09,-216 810.09,-216 810.09,-216 810.09,-360.81 810.09,-360.81"/>
<polygon fill="black" stroke="black" points="806.59,-360.81 810.09,-370.81 813.59,-360.81 806.59,-360.81"/>
</g>
<!-- AppService -->
<g id="node18" class="node">
<title>AppService</title>
<ellipse fill="#fdb462" stroke="black" cx="827" cy="-104" rx="56.74" ry="18"/>
<text text-anchor="middle" x="827" y="-99.8" font-family="Times,serif" font-size="14.00">AppService</text>
</g>
<!-- AppService&#45;&gt;AppModule -->
<g id="edge18" class="edge">
<title>AppService&#45;&gt;AppModule</title>
<path fill="none" stroke="black" d="M774.35,-110.76C774.35,-110.76 774.35,-360.73 774.35,-360.73"/>
<polygon fill="black" stroke="black" points="770.85,-360.73 774.35,-370.73 777.85,-360.73 770.85,-360.73"/>
</g>
<!-- NutritionService -->
<g id="node19" class="node">
<title>NutritionService</title>
<ellipse fill="#fdb462" stroke="black" cx="977" cy="-104" rx="75.3" ry="18"/>
<text text-anchor="middle" x="977" y="-99.8" font-family="Times,serif" font-size="14.00">NutritionService</text>
</g>
<!-- NutritionService&#45;&gt;NutritionModule -->
<g id="edge33" class="edge">
<title>NutritionService&#45;&gt;NutritionModule</title>
<path fill="none" stroke="black" d="M948.83,-120.81C948.83,-120.81 948.83,-143.96 948.83,-143.96"/>
<polygon fill="black" stroke="black" points="945.33,-143.96 948.83,-153.96 952.33,-143.96 945.33,-143.96"/>
</g>
<!-- NutritionService&#45;&gt;AppModule -->
<g id="edge19" class="edge">
<title>NutritionService&#45;&gt;AppModule</title>
<path fill="none" stroke="black" d="M925.21,-117.12C925.21,-131.33 925.21,-152 925.21,-152 925.21,-152 778.32,-152 778.32,-152 778.32,-152 778.32,-360.8 778.32,-360.8"/>
<polygon fill="black" stroke="black" points="774.82,-360.8 778.32,-370.8 781.82,-360.8 774.82,-360.8"/>
</g>
<!-- AuthConfig -->
<g id="node20" class="node">
<title>AuthConfig</title>
<ellipse fill="#fdb462" stroke="black" cx="405" cy="-313" rx="57.35" ry="18"/>
<text text-anchor="middle" x="405" y="-308.8" font-family="Times,serif" font-size="14.00">AuthConfig</text>
</g>
<!-- AuthConfig&#45;&gt;AuthModule -->
<g id="edge21" class="edge">
<title>AuthConfig&#45;&gt;AuthModule</title>
<path fill="none" stroke="black" d="M405,-331.15C405,-344.74 405,-361 405,-361 405,-361 886.11,-361 886.11,-361 886.11,-361 886.11,-361.98 886.11,-361.98"/>
<polygon fill="black" stroke="black" points="882.61,-360.79 886.11,-370.79 889.61,-360.79 882.61,-360.79"/>
</g>
<!-- AuthService -->
<g id="node21" class="node">
<title>AuthService</title>
<ellipse fill="#fdb462" stroke="black" cx="671" cy="-313" rx="59.11" ry="18"/>
<text text-anchor="middle" x="671" y="-308.8" font-family="Times,serif" font-size="14.00">AuthService</text>
</g>
<!-- AuthService&#45;&gt;AuthModule -->
<g id="edge22" class="edge">
<title>AuthService&#45;&gt;AuthModule</title>
<path fill="none" stroke="black" d="M727.17,-319C803.32,-319 929.89,-319 929.89,-319 929.89,-319 929.89,-360.97 929.89,-360.97"/>
<polygon fill="black" stroke="black" points="926.39,-360.97 929.89,-370.97 933.39,-360.97 926.39,-360.97"/>
</g>
<!-- JwtStrategy -->
<g id="node22" class="node">
<title>JwtStrategy</title>
<ellipse fill="#fdb462" stroke="black" cx="537" cy="-313" rx="56.76" ry="18"/>
<text text-anchor="middle" x="537" y="-308.8" font-family="Times,serif" font-size="14.00">JwtStrategy</text>
</g>
<!-- JwtStrategy&#45;&gt;AuthModule -->
<g id="edge23" class="edge">
<title>JwtStrategy&#45;&gt;AuthModule</title>
<path fill="none" stroke="black" d="M537,-331.11C537,-340.9 537,-351 537,-351 537,-351 908,-351 908,-351 908,-351 908,-360.89 908,-360.89"/>
<polygon fill="black" stroke="black" points="904.5,-360.89 908,-370.89 911.5,-360.89 904.5,-360.89"/>
</g>
<!-- ChatService -->
<g id="node24" class="node">
<title>ChatService</title>
<ellipse fill="#fdb462" stroke="black" cx="2501" cy="-389" rx="58.46" ry="18"/>
<text text-anchor="middle" x="2501" y="-384.8" font-family="Times,serif" font-size="14.00">ChatService</text>
</g>
<!-- ChatService&#45;&gt;ChatModule -->
<g id="edge26" class="edge">
<title>ChatService&#45;&gt;ChatModule</title>
<path fill="none" stroke="black" d="M2445.92,-383C2208.38,-383 1283.5,-383 1283.5,-383 1283.5,-383 1283.5,-341.03 1283.5,-341.03"/>
<polygon fill="black" stroke="black" points="1287,-341.03 1283.5,-331.03 1280,-341.03 1287,-341.03"/>
</g>
<!-- ExercisesLibraryService -->
<g id="node25" class="node">
<title>ExercisesLibraryService</title>
<ellipse fill="#fdb462" stroke="black" cx="2847" cy="-104" rx="105.89" ry="18"/>
<text text-anchor="middle" x="2847" y="-99.8" font-family="Times,serif" font-size="14.00">ExercisesLibraryService</text>
</g>
<!-- ExercisesLibraryService&#45;&gt;ExercisesLibraryModule -->
<g id="edge27" class="edge">
<title>ExercisesLibraryService&#45;&gt;ExercisesLibraryModule</title>
<path fill="none" stroke="black" d="M2800.86,-120.22C2800.86,-124.03 2800.86,-127 2800.86,-127 2800.86,-127 1185,-127 1185,-127 1185,-127 1185,-143.96 1185,-143.96"/>
<polygon fill="black" stroke="black" points="1181.5,-143.96 1185,-153.96 1188.5,-143.96 1181.5,-143.96"/>
</g>
<!-- FeedbackUserService -->
<g id="node26" class="node">
<title>FeedbackUserService</title>
<ellipse fill="#fdb462" stroke="black" cx="3088" cy="-104" rx="95.44" ry="18"/>
<text text-anchor="middle" x="3088" y="-99.8" font-family="Times,serif" font-size="14.00">FeedbackUserService</text>
</g>
<!-- FeedbackUserService&#45;&gt;FeedbackUserModule -->
<g id="edge28" class="edge">
<title>FeedbackUserService&#45;&gt;FeedbackUserModule</title>
<path fill="none" stroke="black" d="M3088,-122.06C3088,-126.49 3088,-130 3088,-130 3088,-130 1350,-130 1350,-130 1350,-130 1350,-143.94 1350,-143.94"/>
<polygon fill="black" stroke="black" points="1346.5,-143.94 1350,-153.94 1353.5,-143.94 1346.5,-143.94"/>
</g>
<!-- FileService -->
<g id="node28" class="node">
<title>FileService</title>
<ellipse fill="#fdb462" stroke="black" cx="2498" cy="-237" rx="55.03" ry="18"/>
<text text-anchor="middle" x="2498" y="-232.8" font-family="Times,serif" font-size="14.00">FileService</text>
</g>
<!-- FileService&#45;&gt;FileModule -->
<g id="edge30" class="edge">
<title>FileService&#45;&gt;FileModule</title>
<path fill="none" stroke="black" d="M2450.29,-246C2418.42,-246 2382.33,-246 2382.33,-246 2382.33,-246 2382.33,-200.29 2382.33,-200.29"/>
<polygon fill="black" stroke="black" points="2385.83,-200.29 2382.33,-190.29 2378.83,-200.29 2385.83,-200.29"/>
</g>
<!-- MealRecoService -->
<g id="node29" class="node">
<title>MealRecoService</title>
<ellipse fill="#fdb462" stroke="black" cx="2781" cy="-237" rx="79.85" ry="18"/>
<text text-anchor="middle" x="2781" y="-232.8" font-family="Times,serif" font-size="14.00">MealRecoService</text>
</g>
<!-- MealRecoService&#45;&gt;MealRecoModule -->
<g id="edge32" class="edge">
<title>MealRecoService&#45;&gt;MealRecoModule</title>
<path fill="none" stroke="black" d="M2781,-255.24C2781,-270.57 2781,-290 2781,-290 2781,-290 1153.4,-290 1153.4,-290 1153.4,-290 1153.4,-290.49 1153.4,-290.49"/>
<polygon fill="black" stroke="black" points="1149.9,-284.88 1153.4,-294.88 1156.9,-284.88 1149.9,-284.88"/>
</g>
<!-- OpenffService -->
<g id="node30" class="node">
<title>OpenffService</title>
<ellipse fill="#fdb462" stroke="black" cx="3290" cy="-104" rx="67.17" ry="18"/>
<text text-anchor="middle" x="3290" y="-99.8" font-family="Times,serif" font-size="14.00">OpenffService</text>
</g>
<!-- OpenffService&#45;&gt;OpenffModule -->
<g id="edge34" class="edge">
<title>OpenffService&#45;&gt;OpenffModule</title>
<path fill="none" stroke="black" d="M3290,-122.21C3290,-127.55 3290,-132 3290,-132 3290,-132 1487,-132 1487,-132 1487,-132 1487,-143.87 1487,-143.87"/>
<polygon fill="black" stroke="black" points="1483.5,-143.87 1487,-153.87 1490.5,-143.87 1483.5,-143.87"/>
</g>
<!-- PreferencesService -->
<g id="node31" class="node">
<title>PreferencesService</title>
<ellipse fill="#fdb462" stroke="black" cx="3482" cy="-104" rx="85.04" ry="18"/>
<text text-anchor="middle" x="3482" y="-99.8" font-family="Times,serif" font-size="14.00">PreferencesService</text>
</g>
<!-- PreferencesService&#45;&gt;PreferencesModule -->
<g id="edge35" class="edge">
<title>PreferencesService&#45;&gt;PreferencesModule</title>
<path fill="none" stroke="black" d="M3482,-122C3482,-131 3482,-140 3482,-140 3482,-140 1725,-140 1725,-140 1725,-140 1725,-143.76 1725,-143.76"/>
<polygon fill="black" stroke="black" points="1721.5,-143.76 1725,-153.76 1728.5,-143.76 1721.5,-143.76"/>
</g>
<!-- PrismaService -->
<g id="node33" class="node">
<title>PrismaService</title>
<ellipse fill="#fdb462" stroke="black" cx="2634" cy="-104" rx="66.63" ry="18"/>
<text text-anchor="middle" x="2634" y="-99.8" font-family="Times,serif" font-size="14.00">PrismaService</text>
</g>
<!-- PrismaService&#45;&gt;PrismaModule -->
<g id="edge37" class="edge">
<title>PrismaService&#45;&gt;PrismaModule</title>
<path fill="none" stroke="black" d="M2570.58,-109.74C2570.58,-115.96 2570.58,-125 2570.58,-125 2570.58,-125 1076.94,-125 1076.94,-125 1076.94,-125 1076.94,-143.96 1076.94,-143.96"/>
<polygon fill="black" stroke="black" points="1073.44,-143.96 1076.94,-153.96 1080.44,-143.96 1073.44,-143.96"/>
</g>
<!-- PrismaService&#45;&gt;StepsModule -->
<g id="edge39" class="edge">
<title>PrismaService&#45;&gt;StepsModule</title>
<path fill="none" stroke="black" d="M2573.98,-112.14C2573.98,-121.33 2573.98,-135 2573.98,-135 2573.98,-135 1585.02,-135 1585.02,-135 1585.02,-135 1585.02,-143.93 1585.02,-143.93"/>
<polygon fill="black" stroke="black" points="1581.52,-143.93 1585.02,-153.93 1588.52,-143.93 1581.52,-143.93"/>
</g>
<!-- ReportsService -->
<g id="node34" class="node">
<title>ReportsService</title>
<ellipse fill="#fdb462" stroke="black" cx="3677" cy="-104" rx="70.06" ry="18"/>
<text text-anchor="middle" x="3677" y="-99.8" font-family="Times,serif" font-size="14.00">ReportsService</text>
</g>
<!-- ReportsService&#45;&gt;ReportsModule -->
<g id="edge38" class="edge">
<title>ReportsService&#45;&gt;ReportsModule</title>
<path fill="none" stroke="black" d="M3677,-122.11C3677,-131.9 3677,-142 3677,-142 3677,-142 1857,-142 1857,-142 1857,-142 1857,-143.86 1857,-143.86"/>
<polygon fill="black" stroke="black" points="1853.5,-143.86 1857,-153.86 1860.5,-143.86 1853.5,-143.86"/>
</g>
<!-- StepsService -->
<g id="node35" class="node">
<title>StepsService</title>
<ellipse fill="#fdb462" stroke="black" cx="3848" cy="-104" rx="60.83" ry="18"/>
<text text-anchor="middle" x="3848" y="-99.8" font-family="Times,serif" font-size="14.00">StepsService</text>
</g>
<!-- StepsService&#45;&gt;StepsModule -->
<g id="edge40" class="edge">
<title>StepsService&#45;&gt;StepsModule</title>
<path fill="none" stroke="black" d="M3848,-122.04C3848,-129.75 3848,-137 3848,-137 3848,-137 1614.98,-137 1614.98,-137 1614.98,-137 1614.98,-143.68 1614.98,-143.68"/>
<polygon fill="black" stroke="black" points="1611.48,-143.68 1614.98,-153.68 1618.48,-143.68 1611.48,-143.68"/>
</g>
<!-- TicketsService -->
<g id="node36" class="node">
<title>TicketsService</title>
<ellipse fill="#fdb462" stroke="black" cx="4017" cy="-104" rx="68.33" ry="18"/>
<text text-anchor="middle" x="4017" y="-99.8" font-family="Times,serif" font-size="14.00">TicketsService</text>
</g>
<!-- TicketsService&#45;&gt;TicketsModule -->
<g id="edge41" class="edge">
<title>TicketsService&#45;&gt;TicketsModule</title>
<path fill="none" stroke="black" d="M4017,-122.1C4017,-133.09 4017,-145 4017,-145 4017,-145 1977,-145 1977,-145 1977,-145 1977,-145.88 1977,-145.88"/>
<polygon fill="black" stroke="black" points="1973.5,-143.84 1977,-153.84 1980.5,-143.84 1973.5,-143.84"/>
</g>
<!-- UserAdminService -->
<g id="node37" class="node">
<title>UserAdminService</title>
<ellipse fill="#fdb462" stroke="black" cx="4210" cy="-104" rx="85.09" ry="18"/>
<text text-anchor="middle" x="4210" y="-99.8" font-family="Times,serif" font-size="14.00">UserAdminService</text>
</g>
<!-- UserAdminService&#45;&gt;UserAdminModule -->
<g id="edge42" class="edge">
<title>UserAdminService&#45;&gt;UserAdminModule</title>
<path fill="none" stroke="black" d="M4210,-122.49C4210,-134.14 4210,-147 4210,-147 4210,-147 2108,-147 2108,-147 2108,-147 2108,-147.68 2108,-147.68"/>
<polygon fill="black" stroke="black" points="2104.5,-143.83 2108,-153.83 2111.5,-143.83 2104.5,-143.83"/>
</g>
<!-- UserInfoService -->
<g id="node39" class="node">
<title>UserInfoService</title>
<ellipse fill="#fdb462" stroke="black" cx="98" cy="-313" rx="74.11" ry="18"/>
<text text-anchor="middle" x="98" y="-308.8" font-family="Times,serif" font-size="14.00">UserInfoService</text>
</g>
<!-- UserInfoService&#45;&gt;UserInfosModule -->
<g id="edge45" class="edge">
<title>UserInfoService&#45;&gt;UserInfosModule</title>
<path fill="none" stroke="black" d="M98,-294.97C98,-270.02 98,-228 98,-228 98,-228 1063.62,-228 1063.62,-228"/>
<polygon fill="black" stroke="black" points="1063.62,-231.5 1073.62,-228 1063.62,-224.5 1063.62,-231.5"/>
</g>
<!-- WorkoutsService -->
<g id="node40" class="node">
<title>WorkoutsService</title>
<ellipse fill="#fdb462" stroke="black" cx="4413" cy="-104" rx="78.15" ry="18"/>
<text text-anchor="middle" x="4413" y="-99.8" font-family="Times,serif" font-size="14.00">WorkoutsService</text>
</g>
<!-- WorkoutsService&#45;&gt;WorkoutsModule -->
<g id="edge46" class="edge">
<title>WorkoutsService&#45;&gt;WorkoutsModule</title>
<path fill="none" stroke="black" d="M4413,-122.18C4413,-135.04 4413,-150 4413,-150 4413,-150 2246,-150 2246,-150 2246,-150 2246,-150.38 2246,-150.38"/>
<polygon fill="black" stroke="black" points="2242.5,-143.83 2246,-153.83 2249.5,-143.83 2242.5,-143.83"/>
</g>
</g>
</svg>
