<?xml version="1.0" encoding="UTF-8" standalone="no"?>
<!DOCTYPE svg PUBLIC "-//W3C//DTD SVG 1.1//EN"
 "http://www.w3.org/Graphics/SVG/1.1/DTD/svg11.dtd">
<!-- Generated by graphviz version 2.47.0 (20210316.0004)
 -->
<!-- Title: dependencies Pages: 1 -->
<svg width="4949pt" height="382pt"
 viewBox="0.00 0.00 4949.00 382.00" xmlns="http://www.w3.org/2000/svg" xmlns:xlink="http://www.w3.org/1999/xlink">
<g id="graph0" class="graph" transform="scale(1 1) rotate(0) translate(4 378)">
<title>dependencies</title>
<polygon fill="white" stroke="transparent" points="-4,4 -4,-378 4945,-378 4945,4 -4,4"/>
<text text-anchor="start" x="2449.51" y="-42.4" font-family="Times-12" font-weight="bold" font-size="14.00">Legend</text>
<polygon fill="#ffffb3" stroke="transparent" points="2236.5,-10 2236.5,-30 2256.5,-30 2256.5,-10 2236.5,-10"/>
<text text-anchor="start" x="2260.13" y="-15.4" font-family="Times-12" font-size="14.00"> &#160;Declarations</text>
<polygon fill="#8dd3c7" stroke="transparent" points="2349.5,-10 2349.5,-30 2369.5,-30 2369.5,-10 2349.5,-10"/>
<text text-anchor="start" x="2373.23" y="-15.4" font-family="Times-12" font-size="14.00"> &#160;Module</text>
<polygon fill="#80b1d3" stroke="transparent" points="2435.5,-10 2435.5,-30 2455.5,-30 2455.5,-10 2435.5,-10"/>
<text text-anchor="start" x="2459.28" y="-15.4" font-family="Times-12" font-size="14.00"> &#160;Bootstrap</text>
<polygon fill="#fdb462" stroke="transparent" points="2532.5,-10 2532.5,-30 2552.5,-30 2552.5,-10 2532.5,-10"/>
<text text-anchor="start" x="2556.17" y="-15.4" font-family="Times-12" font-size="14.00"> &#160;Providers</text>
<polygon fill="#fb8072" stroke="transparent" points="2628.5,-10 2628.5,-30 2648.5,-30 2648.5,-10 2628.5,-10"/>
<text text-anchor="start" x="2652.23" y="-15.4" font-family="Times-12" font-size="14.00"> &#160;Exports</text>
<g id="clust1" class="cluster">
<title>cluster_AlgoMatchingModule</title>
<polygon fill="none" stroke="black" stroke-dasharray="1,5" points="8,-70 8,-206 232,-206 232,-70 8,-70"/>
</g>
<g id="clust6" class="cluster">
<title>cluster_AlgoMatchingModule_providers</title>
<polygon fill="none" stroke="black" points="16,-78 16,-130 224,-130 224,-78 16,-78"/>
</g>
<g id="clust7" class="cluster">
<title>cluster_AppModule</title>
<polygon fill="none" stroke="black" stroke-dasharray="1,5" points="402,-70 402,-366 2415,-366 2415,-70 402,-70"/>
</g>
<g id="clust9" class="cluster">
<title>cluster_AppModule_imports</title>
<polygon fill="none" stroke="black" points="410,-154 410,-358 2315,-358 2315,-154 410,-154"/>
</g>
<g id="clust12" class="cluster">
<title>cluster_AppModule_providers</title>
<polygon fill="none" stroke="black" points="1797,-78 1797,-130 2407,-130 2407,-78 1797,-78"/>
</g>
<g id="clust13" class="cluster">
<title>cluster_AuthModule</title>
<polygon fill="none" stroke="black" stroke-dasharray="1,5" points="2721,-70 2721,-138 3135,-138 3135,-70 2721,-70"/>
</g>
<g id="clust18" class="cluster">
<title>cluster_AuthModule_providers</title>
<polygon fill="none" stroke="black" points="2729,-78 2729,-130 3127,-130 3127,-78 2729,-78"/>
</g>
<g id="clust19" class="cluster">
<title>cluster_BetaUsersModule</title>
<polygon fill="none" stroke="black" stroke-dasharray="1,5" points="3143,-70 3143,-138 3335,-138 3335,-70 3143,-70"/>
</g>
<g id="clust24" class="cluster">
<title>cluster_BetaUsersModule_providers</title>
<polygon fill="none" stroke="black" points="3151,-78 3151,-130 3327,-130 3327,-78 3151,-78"/>
</g>
<g id="clust37" class="cluster">
<title>cluster_ChatModule</title>
<polygon fill="none" stroke="black" stroke-dasharray="1,5" points="246,-222 246,-290 394,-290 394,-222 246,-222"/>
</g>
<g id="clust42" class="cluster">
<title>cluster_ChatModule_providers</title>
<polygon fill="none" stroke="black" points="254,-230 254,-282 386,-282 386,-230 254,-230"/>
</g>
<g id="clust43" class="cluster">
<title>cluster_ExercisesLibraryModule</title>
<polygon fill="none" stroke="black" stroke-dasharray="1,5" points="3343,-70 3343,-138 3587,-138 3587,-70 3343,-70"/>
</g>
<g id="clust48" class="cluster">
<title>cluster_ExercisesLibraryModule_providers</title>
<polygon fill="none" stroke="black" points="3351,-78 3351,-130 3579,-130 3579,-78 3351,-78"/>
</g>
<g id="clust49" class="cluster">
<title>cluster_FileModule</title>
<polygon fill="none" stroke="black" stroke-dasharray="1,5" points="2423,-222 2423,-290 2673,-290 2673,-222 2423,-222"/>
</g>
<g id="clust52" class="cluster">
<title>cluster_FileModule_exports</title>
<polygon fill="none" stroke="black" points="2565,-230 2565,-282 2665,-282 2665,-230 2565,-230"/>
</g>
<g id="clust54" class="cluster">
<title>cluster_FileModule_providers</title>
<polygon fill="none" stroke="black" points="2431,-230 2431,-282 2557,-282 2557,-230 2431,-230"/>
</g>
<g id="clust55" class="cluster">
<title>cluster_FormModule</title>
<polygon fill="none" stroke="black" stroke-dasharray="1,5" points="240,-146 240,-214 394,-214 394,-146 240,-146"/>
</g>
<g id="clust60" class="cluster">
<title>cluster_FormModule_providers</title>
<polygon fill="none" stroke="black" points="248,-154 248,-206 386,-206 386,-154 248,-154"/>
</g>
<g id="clust67" class="cluster">
<title>cluster_MessagesModule</title>
<polygon fill="none" stroke="black" stroke-dasharray="1,5" points="3595,-70 3595,-138 3783,-138 3783,-70 3595,-70"/>
</g>
<g id="clust72" class="cluster">
<title>cluster_MessagesModule_providers</title>
<polygon fill="none" stroke="black" points="3603,-78 3603,-130 3775,-130 3775,-78 3603,-78"/>
</g>
<g id="clust73" class="cluster">
<title>cluster_OpenffModule</title>
<polygon fill="none" stroke="black" stroke-dasharray="1,5" points="3791,-70 3791,-138 3957,-138 3957,-70 3791,-70"/>
</g>
<g id="clust78" class="cluster">
<title>cluster_OpenffModule_providers</title>
<polygon fill="none" stroke="black" points="3799,-78 3799,-130 3949,-130 3949,-78 3799,-78"/>
</g>
<g id="clust79" class="cluster">
<title>cluster_PlanningModule</title>
<polygon fill="none" stroke="black" stroke-dasharray="1,5" points="3965,-70 3965,-138 4145,-138 4145,-70 3965,-70"/>
</g>
<g id="clust84" class="cluster">
<title>cluster_PlanningModule_providers</title>
<polygon fill="none" stroke="black" points="3973,-78 3973,-130 4137,-130 4137,-78 3973,-78"/>
</g>
<g id="clust85" class="cluster">
<title>cluster_PreferencesModule</title>
<polygon fill="none" stroke="black" stroke-dasharray="1,5" points="4153,-70 4153,-138 4355,-138 4355,-70 4153,-70"/>
</g>
<g id="clust90" class="cluster">
<title>cluster_PreferencesModule_providers</title>
<polygon fill="none" stroke="black" points="4161,-78 4161,-130 4347,-130 4347,-78 4161,-78"/>
</g>
<g id="clust91" class="cluster">
<title>cluster_PrismaModule</title>
<polygon fill="none" stroke="black" stroke-dasharray="1,5" points="2423,-70 2423,-138 2713,-138 2713,-70 2423,-70"/>
</g>
<g id="clust94" class="cluster">
<title>cluster_PrismaModule_exports</title>
<polygon fill="none" stroke="black" points="2431,-78 2431,-130 2547,-130 2547,-78 2431,-78"/>
</g>
<g id="clust96" class="cluster">
<title>cluster_PrismaModule_providers</title>
<polygon fill="none" stroke="black" points="2555,-78 2555,-130 2705,-130 2705,-78 2555,-78"/>
</g>
<g id="clust97" class="cluster">
<title>cluster_ReportsModule</title>
<polygon fill="none" stroke="black" stroke-dasharray="1,5" points="4363,-70 4363,-138 4535,-138 4535,-70 4363,-70"/>
</g>
<g id="clust102" class="cluster">
<title>cluster_ReportsModule_providers</title>
<polygon fill="none" stroke="black" points="4371,-78 4371,-130 4527,-130 4527,-78 4371,-78"/>
</g>
<g id="clust103" class="cluster">
<title>cluster_SportsExerciseModule</title>
<polygon fill="none" stroke="black" stroke-dasharray="1,5" points="4543,-70 4543,-138 4771,-138 4771,-70 4543,-70"/>
</g>
<g id="clust108" class="cluster">
<title>cluster_SportsExerciseModule_providers</title>
<polygon fill="none" stroke="black" points="4551,-78 4551,-130 4763,-130 4763,-78 4551,-78"/>
</g>
<g id="clust109" class="cluster">
<title>cluster_StepsModule</title>
<polygon fill="none" stroke="black" stroke-dasharray="1,5" points="4779,-70 4779,-138 4933,-138 4933,-70 4779,-70"/>
</g>
<g id="clust114" class="cluster">
<title>cluster_StepsModule_providers</title>
<polygon fill="none" stroke="black" points="4787,-78 4787,-130 4925,-130 4925,-78 4787,-78"/>
</g>
<g id="clust115" class="cluster">
<title>cluster_UserInfosModule</title>
<polygon fill="none" stroke="black" stroke-dasharray="1,5" points="2423,-298 2423,-366 2739,-366 2739,-298 2423,-298"/>
</g>
<g id="clust118" class="cluster">
<title>cluster_UserInfosModule_exports</title>
<polygon fill="none" stroke="black" points="2603,-306 2603,-358 2731,-358 2731,-306 2603,-306"/>
</g>
<g id="clust120" class="cluster">
<title>cluster_UserInfosModule_providers</title>
<polygon fill="none" stroke="black" points="2431,-306 2431,-358 2595,-358 2595,-306 2431,-306"/>
</g>
<!-- AlgoMatchingService -->
<g id="node1" class="node">
<title>AlgoMatchingService</title>
<ellipse fill="#fdb462" stroke="black" cx="120" cy="-104" rx="96.13" ry="18"/>
<text text-anchor="middle" x="120" y="-99.8" font-family="Times,serif" font-size="14.00">AlgoMatchingService</text>
</g>
<!-- AlgoMatchingModule -->
<g id="node2" class="node">
<title>AlgoMatchingModule</title>
<polygon fill="#8dd3c7" stroke="black" points="190.7,-198 187.7,-202 166.7,-202 163.7,-198 49.3,-198 49.3,-162 190.7,-162 190.7,-198"/>
<text text-anchor="middle" x="120" y="-175.8" font-family="Times,serif" font-size="14.00">AlgoMatchingModule</text>
</g>
<!-- AlgoMatchingService&#45;&gt;AlgoMatchingModule -->
<g id="edge1" class="edge">
<title>AlgoMatchingService&#45;&gt;AlgoMatchingModule</title>
<path fill="none" stroke="black" d="M120,-122.01C120,-122.01 120,-151.85 120,-151.85"/>
<polygon fill="black" stroke="black" points="116.5,-151.85 120,-161.85 123.5,-151.85 116.5,-151.85"/>
</g>
<!-- AuthModule -->
<g id="node3" class="node">
<title>AuthModule</title>
<polygon fill="#8dd3c7" stroke="black" points="989.55,-198 986.55,-202 965.55,-202 962.55,-198 902.45,-198 902.45,-162 989.55,-162 989.55,-198"/>
<text text-anchor="middle" x="946" y="-175.8" font-family="Times,serif" font-size="14.00">AuthModule</text>
</g>
<!-- AppModule -->
<g id="node21" class="node">
<title>AppModule</title>
<polygon fill="#8dd3c7" stroke="black" points="2406.66,-350 2403.66,-354 2382.66,-354 2379.66,-350 2323.34,-350 2323.34,-314 2406.66,-314 2406.66,-350"/>
<text text-anchor="middle" x="2365" y="-327.8" font-family="Times,serif" font-size="14.00">AppModule</text>
</g>
<!-- AuthModule&#45;&gt;AppModule -->
<g id="edge2" class="edge">
<title>AuthModule&#45;&gt;AppModule</title>
<path fill="none" stroke="black" d="M946,-198.04C946,-210.56 946,-225 946,-225 946,-225 2349.8,-225 2349.8,-225 2349.8,-225 2349.8,-303.85 2349.8,-303.85"/>
<polygon fill="black" stroke="black" points="2346.3,-303.85 2349.8,-313.85 2353.3,-303.85 2346.3,-303.85"/>
</g>
<!-- BetaUsersModule -->
<g id="node4" class="node">
<title>BetaUsersModule</title>
<polygon fill="#8dd3c7" stroke="black" points="1124.58,-198 1121.58,-202 1100.58,-202 1097.58,-198 1007.42,-198 1007.42,-162 1124.58,-162 1124.58,-198"/>
<text text-anchor="middle" x="1066" y="-175.8" font-family="Times,serif" font-size="14.00">BetaUsersModule</text>
</g>
<!-- BetaUsersModule&#45;&gt;AppModule -->
<g id="edge3" class="edge">
<title>BetaUsersModule&#45;&gt;AppModule</title>
<path fill="none" stroke="black" d="M1066,-198.06C1066,-209.44 1066,-222 1066,-222 1066,-222 2354.24,-222 2354.24,-222 2354.24,-222 2354.24,-303.84 2354.24,-303.84"/>
<polygon fill="black" stroke="black" points="2350.74,-303.84 2354.24,-313.84 2357.74,-303.84 2350.74,-303.84"/>
</g>
<!-- BugsBetaModule -->
<g id="node5" class="node">
<title>BugsBetaModule</title>
<polygon fill="#8dd3c7" stroke="black" points="531.99,-198 528.99,-202 507.99,-202 504.99,-198 418.01,-198 418.01,-162 531.99,-162 531.99,-198"/>
<text text-anchor="middle" x="475" y="-175.8" font-family="Times,serif" font-size="14.00">BugsBetaModule</text>
</g>
<!-- BugsBetaModule&#45;&gt;AppModule -->
<g id="edge4" class="edge">
<title>BugsBetaModule&#45;&gt;AppModule</title>
<path fill="none" stroke="black" d="M475,-198.03C475,-214.4 475,-236 475,-236 475,-236 2332.05,-236 2332.05,-236 2332.05,-236 2332.05,-303.94 2332.05,-303.94"/>
<polygon fill="black" stroke="black" points="2328.55,-303.94 2332.05,-313.94 2335.55,-303.94 2328.55,-303.94"/>
</g>
<!-- CaloriesModule -->
<g id="node6" class="node">
<title>CaloriesModule</title>
<polygon fill="#8dd3c7" stroke="black" points="656.2,-198 653.2,-202 632.2,-202 629.2,-198 549.8,-198 549.8,-162 656.2,-162 656.2,-198"/>
<text text-anchor="middle" x="603" y="-175.8" font-family="Times,serif" font-size="14.00">CaloriesModule</text>
</g>
<!-- CaloriesModule&#45;&gt;AppModule -->
<g id="edge5" class="edge">
<title>CaloriesModule&#45;&gt;AppModule</title>
<path fill="none" stroke="black" d="M603,-198.24C603,-213.57 603,-233 603,-233 603,-233 2336.49,-233 2336.49,-233 2336.49,-233 2336.49,-303.84 2336.49,-303.84"/>
<polygon fill="black" stroke="black" points="2332.99,-303.84 2336.49,-313.84 2339.99,-303.84 2332.99,-303.84"/>
</g>
<!-- ChatModule -->
<g id="node7" class="node">
<title>ChatModule</title>
<polygon fill="#8dd3c7" stroke="black" points="1992.99,-350 1989.99,-354 1968.99,-354 1965.99,-350 1907.01,-350 1907.01,-314 1992.99,-314 1992.99,-350"/>
<text text-anchor="middle" x="1950" y="-327.8" font-family="Times,serif" font-size="14.00">ChatModule</text>
</g>
<!-- ChatModule&#45;&gt;AppModule -->
<g id="edge6" class="edge">
<title>ChatModule&#45;&gt;AppModule</title>
<path fill="none" stroke="black" d="M1993.24,-346C1993.24,-346 2313.1,-346 2313.1,-346"/>
<polygon fill="black" stroke="black" points="2313.1,-349.5 2323.1,-346 2313.1,-342.5 2313.1,-349.5"/>
</g>
<!-- ExercisesLibraryModule -->
<g id="node8" class="node">
<title>ExercisesLibraryModule</title>
<polygon fill="#8dd3c7" stroke="black" points="1297.67,-198 1294.67,-202 1273.67,-202 1270.67,-198 1142.33,-198 1142.33,-162 1297.67,-162 1297.67,-198"/>
<text text-anchor="middle" x="1220" y="-175.8" font-family="Times,serif" font-size="14.00">ExercisesLibraryModule</text>
</g>
<!-- ExercisesLibraryModule&#45;&gt;AppModule -->
<g id="edge7" class="edge">
<title>ExercisesLibraryModule&#45;&gt;AppModule</title>
<path fill="none" stroke="black" d="M1220,-198.13C1220,-208.71 1220,-220 1220,-220 1220,-220 2358.68,-220 2358.68,-220 2358.68,-220 2358.68,-303.51 2358.68,-303.51"/>
<polygon fill="black" stroke="black" points="2355.18,-303.51 2358.68,-313.51 2362.18,-303.51 2355.18,-303.51"/>
</g>
<!-- FileModule -->
<g id="node9" class="node">
<title>FileModule</title>
<polygon fill="#8dd3c7" stroke="black" points="1396.83,-198 1393.83,-202 1372.83,-202 1369.83,-198 1315.17,-198 1315.17,-162 1396.83,-162 1396.83,-198"/>
<text text-anchor="middle" x="1356" y="-175.8" font-family="Times,serif" font-size="14.00">FileModule</text>
</g>
<!-- UserInfosModule -->
<g id="node20" class="node">
<title>UserInfosModule</title>
<polygon fill="#8dd3c7" stroke="black" points="2007.24,-274 2004.24,-278 1983.24,-278 1980.24,-274 1892.76,-274 1892.76,-238 2007.24,-238 2007.24,-274"/>
<text text-anchor="middle" x="1950" y="-251.8" font-family="Times,serif" font-size="14.00">UserInfosModule</text>
</g>
<!-- FileModule&#45;&gt;UserInfosModule -->
<g id="edge48" class="edge">
<title>FileModule&#45;&gt;UserInfosModule</title>
<path fill="none" stroke="black" d="M1380.4,-198.01C1380.4,-220.49 1380.4,-256 1380.4,-256 1380.4,-256 1882.51,-256 1882.51,-256"/>
<polygon fill="black" stroke="black" points="1882.51,-259.5 1892.51,-256 1882.51,-252.5 1882.51,-259.5"/>
</g>
<!-- FileModule&#45;&gt;AppModule -->
<g id="edge8" class="edge">
<title>FileModule&#45;&gt;AppModule</title>
<path fill="none" stroke="black" d="M1347.87,-198.07C1347.87,-207.46 1347.87,-217 1347.87,-217 1347.87,-217 2363.12,-217 2363.12,-217 2363.12,-217 2363.12,-303.78 2363.12,-303.78"/>
<polygon fill="black" stroke="black" points="2359.62,-303.78 2363.12,-313.78 2366.62,-303.78 2359.62,-303.78"/>
</g>
<!-- FileService  -->
<g id="node32" class="node">
<title>FileService </title>
<polygon fill="#fb8072" stroke="black" points="2656.76,-274 2573.24,-274 2573.24,-238 2656.76,-238 2656.76,-274"/>
<text text-anchor="middle" x="2615" y="-251.8" font-family="Times,serif" font-size="14.00">FileService </text>
</g>
<!-- FileModule&#45;&gt;FileService  -->
<g id="edge33" class="edge">
<title>FileModule&#45;&gt;FileService </title>
<path fill="none" stroke="black" stroke-dasharray="5,2" d="M1364.13,-198.08C1364.13,-199.85 1364.13,-201 1364.13,-201 1364.13,-201 2615,-201 2615,-201 2615,-201 2615,-227.99 2615,-227.99"/>
<polygon fill="black" stroke="black" points="2611.5,-227.99 2615,-237.99 2618.5,-227.99 2611.5,-227.99"/>
</g>
<!-- FormModule -->
<g id="node10" class="node">
<title>FormModule</title>
<polygon fill="#8dd3c7" stroke="black" points="879.88,-274 876.88,-278 855.88,-278 852.88,-274 790.12,-274 790.12,-238 879.88,-238 879.88,-274"/>
<text text-anchor="middle" x="835" y="-251.8" font-family="Times,serif" font-size="14.00">FormModule</text>
</g>
<!-- FormModule&#45;&gt;AppModule -->
<g id="edge9" class="edge">
<title>FormModule&#45;&gt;AppModule</title>
<path fill="none" stroke="black" d="M835,-274.04C835,-286.56 835,-301 835,-301 835,-301 2327.61,-301 2327.61,-301 2327.61,-301 2327.61,-303.97 2327.61,-303.97"/>
<polygon fill="black" stroke="black" points="2324.11,-303.97 2327.61,-313.97 2331.11,-303.97 2324.11,-303.97"/>
</g>
<!-- MealsModule -->
<g id="node11" class="node">
<title>MealsModule</title>
<polygon fill="#8dd3c7" stroke="black" points="767.76,-198 764.76,-202 743.76,-202 740.76,-198 674.24,-198 674.24,-162 767.76,-162 767.76,-198"/>
<text text-anchor="middle" x="721" y="-175.8" font-family="Times,serif" font-size="14.00">MealsModule</text>
</g>
<!-- MealsModule&#45;&gt;AppModule -->
<g id="edge10" class="edge">
<title>MealsModule&#45;&gt;AppModule</title>
<path fill="none" stroke="black" d="M721,-198.05C721,-212.37 721,-230 721,-230 721,-230 2340.92,-230 2340.92,-230 2340.92,-230 2340.92,-303.76 2340.92,-303.76"/>
<polygon fill="black" stroke="black" points="2337.42,-303.76 2340.92,-313.76 2344.42,-303.76 2337.42,-303.76"/>
</g>
<!-- MessagesModule -->
<g id="node12" class="node">
<title>MessagesModule</title>
<polygon fill="#8dd3c7" stroke="black" points="1528.97,-198 1525.97,-202 1504.97,-202 1501.97,-198 1415.03,-198 1415.03,-162 1528.97,-162 1528.97,-198"/>
<text text-anchor="middle" x="1472" y="-175.8" font-family="Times,serif" font-size="14.00">MessagesModule</text>
</g>
<!-- MessagesModule&#45;&gt;AppModule -->
<g id="edge11" class="edge">
<title>MessagesModule&#45;&gt;AppModule</title>
<path fill="none" stroke="black" d="M1472,-198.19C1472,-206.28 1472,-214 1472,-214 1472,-214 2367.55,-214 2367.55,-214 2367.55,-214 2367.55,-303.82 2367.55,-303.82"/>
<polygon fill="black" stroke="black" points="2364.05,-303.82 2367.55,-313.82 2371.05,-303.82 2364.05,-303.82"/>
</g>
<!-- OpenffModule -->
<g id="node13" class="node">
<title>OpenffModule</title>
<polygon fill="#8dd3c7" stroke="black" points="1646.69,-198 1643.69,-202 1622.69,-202 1619.69,-198 1547.31,-198 1547.31,-162 1646.69,-162 1646.69,-198"/>
<text text-anchor="middle" x="1597" y="-175.8" font-family="Times,serif" font-size="14.00">OpenffModule</text>
</g>
<!-- OpenffModule&#45;&gt;AppModule -->
<g id="edge12" class="edge">
<title>OpenffModule&#45;&gt;AppModule</title>
<path fill="none" stroke="black" d="M1597,-198.24C1597,-205.43 1597,-212 1597,-212 1597,-212 2371.99,-212 2371.99,-212 2371.99,-212 2371.99,-303.77 2371.99,-303.77"/>
<polygon fill="black" stroke="black" points="2368.49,-303.77 2371.99,-313.77 2375.49,-303.77 2368.49,-303.77"/>
</g>
<!-- PlanningModule -->
<g id="node14" class="node">
<title>PlanningModule</title>
<polygon fill="#8dd3c7" stroke="black" points="1773.83,-198 1770.83,-202 1749.83,-202 1746.83,-198 1664.17,-198 1664.17,-162 1773.83,-162 1773.83,-198"/>
<text text-anchor="middle" x="1719" y="-175.8" font-family="Times,serif" font-size="14.00">PlanningModule</text>
</g>
<!-- PlanningModule&#45;&gt;AppModule -->
<g id="edge13" class="edge">
<title>PlanningModule&#45;&gt;AppModule</title>
<path fill="none" stroke="black" d="M1719,-198.2C1719,-204.03 1719,-209 1719,-209 1719,-209 2376.43,-209 2376.43,-209 2376.43,-209 2376.43,-303.85 2376.43,-303.85"/>
<polygon fill="black" stroke="black" points="2372.93,-303.85 2376.43,-313.85 2379.93,-303.85 2372.93,-303.85"/>
</g>
<!-- PreferencesModule -->
<g id="node15" class="node">
<title>PreferencesModule</title>
<polygon fill="#8dd3c7" stroke="black" points="1916.33,-198 1913.33,-202 1892.33,-202 1889.33,-198 1791.67,-198 1791.67,-162 1916.33,-162 1916.33,-198"/>
<text text-anchor="middle" x="1854" y="-175.8" font-family="Times,serif" font-size="14.00">PreferencesModule</text>
</g>
<!-- PreferencesModule&#45;&gt;AppModule -->
<g id="edge14" class="edge">
<title>PreferencesModule&#45;&gt;AppModule</title>
<path fill="none" stroke="black" d="M1904.52,-198.06C1904.52,-202.49 1904.52,-206 1904.52,-206 1904.52,-206 2380.87,-206 2380.87,-206 2380.87,-206 2380.87,-303.95 2380.87,-303.95"/>
<polygon fill="black" stroke="black" points="2377.37,-303.95 2380.87,-313.95 2384.37,-303.95 2377.37,-303.95"/>
</g>
<!-- PrismaModule -->
<g id="node16" class="node">
<title>PrismaModule</title>
<polygon fill="#8dd3c7" stroke="black" points="884.43,-198 881.43,-202 860.43,-202 857.43,-198 785.57,-198 785.57,-162 884.43,-162 884.43,-198"/>
<text text-anchor="middle" x="835" y="-175.8" font-family="Times,serif" font-size="14.00">PrismaModule</text>
</g>
<!-- PrismaModule&#45;&gt;FormModule -->
<g id="edge35" class="edge">
<title>PrismaModule&#45;&gt;FormModule</title>
<path fill="none" stroke="black" d="M820.02,-198.01C820.02,-198.01 820.02,-227.85 820.02,-227.85"/>
<polygon fill="black" stroke="black" points="816.52,-227.85 820.02,-237.85 823.52,-227.85 816.52,-227.85"/>
</g>
<!-- PrismaModule&#45;&gt;AppModule -->
<g id="edge15" class="edge">
<title>PrismaModule&#45;&gt;AppModule</title>
<path fill="none" stroke="black" d="M849.98,-198.15C849.98,-211.74 849.98,-228 849.98,-228 849.98,-228 2345.36,-228 2345.36,-228 2345.36,-228 2345.36,-303.88 2345.36,-303.88"/>
<polygon fill="black" stroke="black" points="2341.86,-303.88 2345.36,-313.88 2348.86,-303.88 2341.86,-303.88"/>
</g>
<!-- PrismaService  -->
<g id="node39" class="node">
<title>PrismaService </title>
<polygon fill="#fb8072" stroke="black" points="2539.36,-122 2438.64,-122 2438.64,-86 2539.36,-86 2539.36,-122"/>
<text text-anchor="middle" x="2489" y="-99.8" font-family="Times,serif" font-size="14.00">PrismaService </text>
</g>
<!-- PrismaModule&#45;&gt;PrismaService  -->
<g id="edge42" class="edge">
<title>PrismaModule&#45;&gt;PrismaService </title>
<path fill="none" stroke="black" stroke-dasharray="5,2" d="M851.41,-161.76C851.41,-146.43 851.41,-127 851.41,-127 851.41,-127 2472.38,-127 2472.38,-127 2472.38,-127 2472.38,-126.51 2472.38,-126.51"/>
<polygon fill="black" stroke="black" points="2475.88,-132.12 2472.38,-122.12 2468.88,-132.12 2475.88,-132.12"/>
</g>
<!-- ReportsModule -->
<g id="node17" class="node">
<title>ReportsModule</title>
<polygon fill="#8dd3c7" stroke="black" points="2037.6,-198 2034.6,-202 2013.6,-202 2010.6,-198 1934.4,-198 1934.4,-162 2037.6,-162 2037.6,-198"/>
<text text-anchor="middle" x="1986" y="-175.8" font-family="Times,serif" font-size="14.00">ReportsModule</text>
</g>
<!-- ReportsModule&#45;&gt;AppModule -->
<g id="edge16" class="edge">
<title>ReportsModule&#45;&gt;AppModule</title>
<path fill="none" stroke="black" d="M2027.49,-198.03C2027.49,-238.3 2027.49,-332 2027.49,-332 2027.49,-332 2313.28,-332 2313.28,-332"/>
<polygon fill="black" stroke="black" points="2313.28,-335.5 2323.28,-332 2313.28,-328.5 2313.28,-335.5"/>
</g>
<!-- ReportsModule&#45;&gt;AppModule -->
<g id="edge17" class="edge">
<title>ReportsModule&#45;&gt;AppModule</title>
<path fill="none" stroke="black" d="M2017.43,-198.01C2017.43,-239.25 2017.43,-337 2017.43,-337 2017.43,-337 2313.07,-337 2313.07,-337"/>
<polygon fill="black" stroke="black" points="2313.07,-340.5 2323.07,-337 2313.07,-333.5 2313.07,-340.5"/>
</g>
<!-- SportsExerciseModule -->
<g id="node18" class="node">
<title>SportsExerciseModule</title>
<polygon fill="#8dd3c7" stroke="black" points="2198.52,-198 2195.52,-202 2174.52,-202 2171.52,-198 2055.48,-198 2055.48,-162 2198.52,-162 2198.52,-198"/>
<text text-anchor="middle" x="2127" y="-175.8" font-family="Times,serif" font-size="14.00">SportsExerciseModule</text>
</g>
<!-- SportsExerciseModule&#45;&gt;AppModule -->
<g id="edge18" class="edge">
<title>SportsExerciseModule&#45;&gt;AppModule</title>
<path fill="none" stroke="black" d="M2127,-198.11C2127,-236.59 2127,-323 2127,-323 2127,-323 2313.27,-323 2313.27,-323"/>
<polygon fill="black" stroke="black" points="2313.27,-326.5 2323.27,-323 2313.27,-319.5 2313.27,-326.5"/>
</g>
<!-- StepsModule -->
<g id="node19" class="node">
<title>StepsModule</title>
<polygon fill="#8dd3c7" stroke="black" points="2306.88,-198 2303.88,-202 2282.88,-202 2279.88,-198 2217.12,-198 2217.12,-162 2306.88,-162 2306.88,-198"/>
<text text-anchor="middle" x="2262" y="-175.8" font-family="Times,serif" font-size="14.00">StepsModule</text>
</g>
<!-- StepsModule&#45;&gt;AppModule -->
<g id="edge19" class="edge">
<title>StepsModule&#45;&gt;AppModule</title>
<path fill="none" stroke="black" d="M2307.21,-189C2342.41,-189 2385.31,-189 2385.31,-189 2385.31,-189 2385.31,-303.89 2385.31,-303.89"/>
<polygon fill="black" stroke="black" points="2381.81,-303.89 2385.31,-313.89 2388.81,-303.89 2381.81,-303.89"/>
</g>
<!-- UserInfosModule&#45;&gt;ChatModule -->
<g id="edge30" class="edge">
<title>UserInfosModule&#45;&gt;ChatModule</title>
<path fill="none" stroke="black" d="M1950,-274.01C1950,-274.01 1950,-303.85 1950,-303.85"/>
<polygon fill="black" stroke="black" points="1946.5,-303.85 1950,-313.85 1953.5,-303.85 1946.5,-303.85"/>
</g>
<!-- UserInfosModule&#45;&gt;AppModule -->
<g id="edge20" class="edge">
<title>UserInfosModule&#45;&gt;AppModule</title>
<path fill="none" stroke="black" d="M2002.58,-274.03C2002.58,-298.98 2002.58,-341 2002.58,-341 2002.58,-341 2313.07,-341 2313.07,-341"/>
<polygon fill="black" stroke="black" points="2313.07,-344.5 2323.07,-341 2313.07,-337.5 2313.07,-344.5"/>
</g>
<!-- UserInfoService  -->
<g id="node44" class="node">
<title>UserInfoService </title>
<polygon fill="#fb8072" stroke="black" points="2722.73,-350 2611.27,-350 2611.27,-314 2722.73,-314 2722.73,-350"/>
<text text-anchor="middle" x="2667" y="-327.8" font-family="Times,serif" font-size="14.00">UserInfoService </text>
</g>
<!-- UserInfosModule&#45;&gt;UserInfoService  -->
<g id="edge49" class="edge">
<title>UserInfosModule&#45;&gt;UserInfoService </title>
<path fill="none" stroke="black" stroke-dasharray="5,2" d="M1997.79,-274.24C1997.79,-281.43 1997.79,-288 1997.79,-288 1997.79,-288 2634.01,-288 2634.01,-288 2634.01,-288 2634.01,-303.85 2634.01,-303.85"/>
<polygon fill="black" stroke="black" points="2630.51,-303.85 2634.01,-313.85 2637.51,-303.85 2630.51,-303.85"/>
</g>
<!-- AppService -->
<g id="node22" class="node">
<title>AppService</title>
<ellipse fill="#fdb462" stroke="black" cx="2342" cy="-104" rx="56.74" ry="18"/>
<text text-anchor="middle" x="2342" y="-99.8" font-family="Times,serif" font-size="14.00">AppService</text>
</g>
<!-- AppService&#45;&gt;AppModule -->
<g id="edge21" class="edge">
<title>AppService&#45;&gt;AppModule</title>
<path fill="none" stroke="black" d="M2394.18,-111.07C2394.18,-111.07 2394.18,-303.9 2394.18,-303.9"/>
<polygon fill="black" stroke="black" points="2390.68,-303.9 2394.18,-313.9 2397.68,-303.9 2390.68,-303.9"/>
</g>
<!-- BugsBetaService -->
<g id="node23" class="node">
<title>BugsBetaService</title>
<ellipse fill="#fdb462" stroke="black" cx="2190" cy="-104" rx="77.58" ry="18"/>
<text text-anchor="middle" x="2190" y="-99.8" font-family="Times,serif" font-size="14.00">BugsBetaService</text>
</g>
<!-- BugsBetaService&#45;&gt;AppModule -->
<g id="edge22" class="edge">
<title>BugsBetaService&#45;&gt;AppModule</title>
<path fill="none" stroke="black" d="M2207.91,-121.59C2207.91,-172.94 2207.91,-319 2207.91,-319 2207.91,-319 2313.32,-319 2313.32,-319"/>
<polygon fill="black" stroke="black" points="2313.32,-322.5 2323.32,-319 2313.32,-315.5 2313.32,-322.5"/>
</g>
<!-- CaloriesService -->
<g id="node24" class="node">
<title>CaloriesService</title>
<ellipse fill="#fdb462" stroke="black" cx="1877" cy="-104" rx="72.34" ry="18"/>
<text text-anchor="middle" x="1877" y="-99.8" font-family="Times,serif" font-size="14.00">CaloriesService</text>
</g>
<!-- CaloriesService&#45;&gt;CaloriesModule -->
<g id="edge29" class="edge">
<title>CaloriesService&#45;&gt;CaloriesModule</title>
<path fill="none" stroke="black" d="M1804.39,-104C1534.28,-104 603,-104 603,-104 603,-104 603,-151.99 603,-151.99"/>
<polygon fill="black" stroke="black" points="599.5,-151.99 603,-161.99 606.5,-151.99 599.5,-151.99"/>
</g>
<!-- CaloriesService&#45;&gt;AppModule -->
<g id="edge23" class="edge">
<title>CaloriesService&#45;&gt;AppModule</title>
<path fill="none" stroke="black" d="M1941.81,-112.26C1941.81,-127.84 1941.81,-160 1941.81,-160 1941.81,-160 2389.74,-160 2389.74,-160 2389.74,-160 2389.74,-303.92 2389.74,-303.92"/>
<polygon fill="black" stroke="black" points="2386.24,-303.92 2389.74,-313.92 2393.24,-303.92 2386.24,-303.92"/>
</g>
<!-- MealsService -->
<g id="node25" class="node">
<title>MealsService</title>
<ellipse fill="#fdb462" stroke="black" cx="2031" cy="-104" rx="63.68" ry="18"/>
<text text-anchor="middle" x="2031" y="-99.8" font-family="Times,serif" font-size="14.00">MealsService</text>
</g>
<!-- MealsService&#45;&gt;MealsModule -->
<g id="edge37" class="edge">
<title>MealsService&#45;&gt;MealsModule</title>
<path fill="none" stroke="black" d="M1990.79,-118.36C1990.79,-122.05 1990.79,-125 1990.79,-125 1990.79,-125 721,-125 721,-125 721,-125 721,-151.99 721,-151.99"/>
<polygon fill="black" stroke="black" points="717.5,-151.99 721,-161.99 724.5,-151.99 717.5,-151.99"/>
</g>
<!-- MealsService&#45;&gt;AppModule -->
<g id="edge24" class="edge">
<title>MealsService&#45;&gt;AppModule</title>
<path fill="none" stroke="black" d="M2046.39,-121.58C2046.39,-174.38 2046.39,-328 2046.39,-328 2046.39,-328 2313.02,-328 2313.02,-328"/>
<polygon fill="black" stroke="black" points="2313.02,-331.5 2323.02,-328 2313.02,-324.5 2313.02,-331.5"/>
</g>
<!-- AuthConfig -->
<g id="node26" class="node">
<title>AuthConfig</title>
<ellipse fill="#fdb462" stroke="black" cx="3062" cy="-104" rx="57.35" ry="18"/>
<text text-anchor="middle" x="3062" y="-99.8" font-family="Times,serif" font-size="14.00">AuthConfig</text>
</g>
<!-- AuthConfig&#45;&gt;AuthModule -->
<g id="edge25" class="edge">
<title>AuthConfig&#45;&gt;AuthModule</title>
<path fill="none" stroke="black" d="M3062,-122.04C3062,-129.75 3062,-137 3062,-137 3062,-137 967.89,-137 967.89,-137 967.89,-137 967.89,-151.51 967.89,-151.51"/>
<polygon fill="black" stroke="black" points="964.39,-151.51 967.89,-161.51 971.39,-151.51 964.39,-151.51"/>
</g>
<!-- AuthService -->
<g id="node27" class="node">
<title>AuthService</title>
<ellipse fill="#fdb462" stroke="black" cx="2928" cy="-104" rx="59.11" ry="18"/>
<text text-anchor="middle" x="2928" y="-99.8" font-family="Times,serif" font-size="14.00">AuthService</text>
</g>
<!-- AuthService&#45;&gt;AuthModule -->
<g id="edge26" class="edge">
<title>AuthService&#45;&gt;AuthModule</title>
<path fill="none" stroke="black" d="M2928,-122.03C2928,-128.85 2928,-135 2928,-135 2928,-135 946,-135 946,-135 946,-135 946,-151.96 946,-151.96"/>
<polygon fill="black" stroke="black" points="942.5,-151.96 946,-161.96 949.5,-151.96 942.5,-151.96"/>
</g>
<!-- JwtStrategy -->
<g id="node28" class="node">
<title>JwtStrategy</title>
<ellipse fill="#fdb462" stroke="black" cx="2794" cy="-104" rx="56.76" ry="18"/>
<text text-anchor="middle" x="2794" y="-99.8" font-family="Times,serif" font-size="14.00">JwtStrategy</text>
</g>
<!-- JwtStrategy&#45;&gt;AuthModule -->
<g id="edge27" class="edge">
<title>JwtStrategy&#45;&gt;AuthModule</title>
<path fill="none" stroke="black" d="M2794,-122.21C2794,-127.55 2794,-132 2794,-132 2794,-132 924.11,-132 924.11,-132 924.11,-132 924.11,-151.85 924.11,-151.85"/>
<polygon fill="black" stroke="black" points="920.61,-151.85 924.11,-161.85 927.61,-151.85 920.61,-151.85"/>
</g>
<!-- BetaUsersService -->
<g id="node29" class="node">
<title>BetaUsersService</title>
<ellipse fill="#fdb462" stroke="black" cx="3239" cy="-104" rx="79.85" ry="18"/>
<text text-anchor="middle" x="3239" y="-99.8" font-family="Times,serif" font-size="14.00">BetaUsersService</text>
</g>
<!-- BetaUsersService&#45;&gt;BetaUsersModule -->
<g id="edge28" class="edge">
<title>BetaUsersService&#45;&gt;BetaUsersModule</title>
<path fill="none" stroke="black" d="M3239,-122C3239,-131 3239,-140 3239,-140 3239,-140 1066,-140 1066,-140 1066,-140 1066,-151.87 1066,-151.87"/>
<polygon fill="black" stroke="black" points="1062.5,-151.87 1066,-161.87 1069.5,-151.87 1062.5,-151.87"/>
</g>
<!-- ChatService -->
<g id="node30" class="node">
<title>ChatService</title>
<ellipse fill="#fdb462" stroke="black" cx="320" cy="-256" rx="58.46" ry="18"/>
<text text-anchor="middle" x="320" y="-251.8" font-family="Times,serif" font-size="14.00">ChatService</text>
</g>
<!-- ChatService&#45;&gt;ChatModule -->
<g id="edge31" class="edge">
<title>ChatService&#45;&gt;ChatModule</title>
<path fill="none" stroke="black" d="M320,-274.01C320,-296.49 320,-332 320,-332 320,-332 1896.82,-332 1896.82,-332"/>
<polygon fill="black" stroke="black" points="1896.82,-335.5 1906.82,-332 1896.82,-328.5 1896.82,-335.5"/>
</g>
<!-- ExercisesLibraryService -->
<g id="node31" class="node">
<title>ExercisesLibraryService</title>
<ellipse fill="#fdb462" stroke="black" cx="3465" cy="-104" rx="105.89" ry="18"/>
<text text-anchor="middle" x="3465" y="-99.8" font-family="Times,serif" font-size="14.00">ExercisesLibraryService</text>
</g>
<!-- ExercisesLibraryService&#45;&gt;ExercisesLibraryModule -->
<g id="edge32" class="edge">
<title>ExercisesLibraryService&#45;&gt;ExercisesLibraryModule</title>
<path fill="none" stroke="black" d="M3465,-122.11C3465,-131.9 3465,-142 3465,-142 3465,-142 1220,-142 1220,-142 1220,-142 1220,-151.89 1220,-151.89"/>
<polygon fill="black" stroke="black" points="1216.5,-151.89 1220,-161.89 1223.5,-151.89 1216.5,-151.89"/>
</g>
<!-- FileService -->
<g id="node33" class="node">
<title>FileService</title>
<ellipse fill="#fdb462" stroke="black" cx="2494" cy="-256" rx="55.03" ry="18"/>
<text text-anchor="middle" x="2494" y="-251.8" font-family="Times,serif" font-size="14.00">FileService</text>
</g>
<!-- FileService&#45;&gt;FileModule -->
<g id="edge34" class="edge">
<title>FileService&#45;&gt;FileModule</title>
<path fill="none" stroke="black" d="M2505.78,-238.4C2505.78,-223.31 2505.78,-204 2505.78,-204 2505.78,-204 1331.6,-204 1331.6,-204 1331.6,-204 1331.6,-203.42 1331.6,-203.42"/>
<polygon fill="black" stroke="black" points="1335.1,-208.19 1331.6,-198.19 1328.1,-208.19 1335.1,-208.19"/>
</g>
<!-- FormService -->
<g id="node34" class="node">
<title>FormService</title>
<ellipse fill="#fdb462" stroke="black" cx="317" cy="-180" rx="60.83" ry="18"/>
<text text-anchor="middle" x="317" y="-175.8" font-family="Times,serif" font-size="14.00">FormService</text>
</g>
<!-- FormService&#45;&gt;FormModule -->
<g id="edge36" class="edge">
<title>FormService&#45;&gt;FormModule</title>
<path fill="none" stroke="black" d="M378.07,-180C389.59,-180 398.12,-180 398.12,-180 398.12,-180 398.12,-256 398.12,-256 398.12,-256 779.89,-256 779.89,-256"/>
<polygon fill="black" stroke="black" points="779.89,-259.5 789.89,-256 779.89,-252.5 779.89,-259.5"/>
</g>
<!-- MessagesService -->
<g id="node35" class="node">
<title>MessagesService</title>
<ellipse fill="#fdb462" stroke="black" cx="3689" cy="-104" rx="77.56" ry="18"/>
<text text-anchor="middle" x="3689" y="-99.8" font-family="Times,serif" font-size="14.00">MessagesService</text>
</g>
<!-- MessagesService&#45;&gt;MessagesModule -->
<g id="edge38" class="edge">
<title>MessagesService&#45;&gt;MessagesModule</title>
<path fill="none" stroke="black" d="M3689,-122.1C3689,-133.09 3689,-145 3689,-145 3689,-145 1472,-145 1472,-145 1472,-145 1472,-151.68 1472,-151.68"/>
<polygon fill="black" stroke="black" points="1468.5,-151.68 1472,-161.68 1475.5,-151.68 1468.5,-151.68"/>
</g>
<!-- OpenffService -->
<g id="node36" class="node">
<title>OpenffService</title>
<ellipse fill="#fdb462" stroke="black" cx="3874" cy="-104" rx="67.17" ry="18"/>
<text text-anchor="middle" x="3874" y="-99.8" font-family="Times,serif" font-size="14.00">OpenffService</text>
</g>
<!-- OpenffService&#45;&gt;OpenffModule -->
<g id="edge39" class="edge">
<title>OpenffService&#45;&gt;OpenffModule</title>
<path fill="none" stroke="black" d="M3874,-122.49C3874,-134.14 3874,-147 3874,-147 3874,-147 1597,-147 1597,-147 1597,-147 1597,-151.96 1597,-151.96"/>
<polygon fill="black" stroke="black" points="1593.5,-151.96 1597,-161.96 1600.5,-151.96 1593.5,-151.96"/>
</g>
<!-- PlanningService -->
<g id="node37" class="node">
<title>PlanningService</title>
<ellipse fill="#fdb462" stroke="black" cx="4055" cy="-104" rx="74.16" ry="18"/>
<text text-anchor="middle" x="4055" y="-99.8" font-family="Times,serif" font-size="14.00">PlanningService</text>
</g>
<!-- PlanningService&#45;&gt;PlanningModule -->
<g id="edge40" class="edge">
<title>PlanningService&#45;&gt;PlanningModule</title>
<path fill="none" stroke="black" d="M4055,-122.18C4055,-135.04 4055,-150 4055,-150 4055,-150 1719,-150 1719,-150 1719,-150 1719,-151.86 1719,-151.86"/>
<polygon fill="black" stroke="black" points="1715.5,-151.86 1719,-161.86 1722.5,-151.86 1715.5,-151.86"/>
</g>
<!-- PreferencesService -->
<g id="node38" class="node">
<title>PreferencesService</title>
<ellipse fill="#fdb462" stroke="black" cx="4254" cy="-104" rx="85.04" ry="18"/>
<text text-anchor="middle" x="4254" y="-99.8" font-family="Times,serif" font-size="14.00">PreferencesService</text>
</g>
<!-- PreferencesService&#45;&gt;PreferencesModule -->
<g id="edge41" class="edge">
<title>PreferencesService&#45;&gt;PreferencesModule</title>
<path fill="none" stroke="black" d="M4254,-122.15C4254,-135.74 4254,-152 4254,-152 4254,-152 1860.62,-152 1860.62,-152 1860.62,-152 1860.62,-152.98 1860.62,-152.98"/>
<polygon fill="black" stroke="black" points="1857.12,-151.79 1860.62,-161.79 1864.12,-151.79 1857.12,-151.79"/>
</g>
<!-- PrismaService -->
<g id="node40" class="node">
<title>PrismaService</title>
<ellipse fill="#fdb462" stroke="black" cx="2630" cy="-104" rx="66.63" ry="18"/>
<text text-anchor="middle" x="2630" y="-99.8" font-family="Times,serif" font-size="14.00">PrismaService</text>
</g>
<!-- PrismaService&#45;&gt;PrismaModule -->
<g id="edge43" class="edge">
<title>PrismaService&#45;&gt;PrismaModule</title>
<path fill="none" stroke="black" d="M2566.58,-109.77C2566.58,-117.43 2566.58,-130 2566.58,-130 2566.58,-130 818.59,-130 818.59,-130 818.59,-130 818.59,-151.95 818.59,-151.95"/>
<polygon fill="black" stroke="black" points="815.09,-151.95 818.59,-161.95 822.09,-151.95 815.09,-151.95"/>
</g>
<!-- PrismaService&#45;&gt;StepsModule -->
<g id="edge46" class="edge">
<title>PrismaService&#45;&gt;StepsModule</title>
<path fill="none" stroke="black" d="M2569.98,-111.95C2569.98,-129.7 2569.98,-171 2569.98,-171 2569.98,-171 2317.11,-171 2317.11,-171"/>
<polygon fill="black" stroke="black" points="2317.11,-167.5 2307.11,-171 2317.11,-174.5 2317.11,-167.5"/>
</g>
<!-- ReportsService -->
<g id="node41" class="node">
<title>ReportsService</title>
<ellipse fill="#fdb462" stroke="black" cx="4449" cy="-104" rx="70.06" ry="18"/>
<text text-anchor="middle" x="4449" y="-99.8" font-family="Times,serif" font-size="14.00">ReportsService</text>
</g>
<!-- ReportsService&#45;&gt;ReportsModule -->
<g id="edge44" class="edge">
<title>ReportsService&#45;&gt;ReportsModule</title>
<path fill="none" stroke="black" d="M4449,-122.12C4449,-136.78 4449,-155 4449,-155 4449,-155 2014.17,-155 2014.17,-155 2014.17,-155 2014.17,-155.68 2014.17,-155.68"/>
<polygon fill="black" stroke="black" points="2010.67,-151.83 2014.17,-161.83 2017.67,-151.83 2010.67,-151.83"/>
</g>
<!-- SportsExerciseService -->
<g id="node42" class="node">
<title>SportsExerciseService</title>
<ellipse fill="#fdb462" stroke="black" cx="4657" cy="-104" rx="97.83" ry="18"/>
<text text-anchor="middle" x="4657" y="-99.8" font-family="Times,serif" font-size="14.00">SportsExerciseService</text>
</g>
<!-- SportsExerciseService&#45;&gt;SportsExerciseModule -->
<g id="edge45" class="edge">
<title>SportsExerciseService&#45;&gt;SportsExerciseModule</title>
<path fill="none" stroke="black" d="M4657,-122.24C4657,-137.57 4657,-157 4657,-157 4657,-157 2155.61,-157 2155.61,-157 2155.61,-157 2155.61,-157.49 2155.61,-157.49"/>
<polygon fill="black" stroke="black" points="2152.11,-151.88 2155.61,-161.88 2159.11,-151.88 2152.11,-151.88"/>
</g>
<!-- StepsService -->
<g id="node43" class="node">
<title>StepsService</title>
<ellipse fill="#fdb462" stroke="black" cx="4856" cy="-104" rx="60.83" ry="18"/>
<text text-anchor="middle" x="4856" y="-99.8" font-family="Times,serif" font-size="14.00">StepsService</text>
</g>
<!-- StepsService&#45;&gt;StepsModule -->
<g id="edge47" class="edge">
<title>StepsService&#45;&gt;StepsModule</title>
<path fill="none" stroke="black" d="M4856,-122.01C4856,-144.49 4856,-180 4856,-180 4856,-180 2317.02,-180 2317.02,-180"/>
<polygon fill="black" stroke="black" points="2317.02,-176.5 2307.02,-180 2317.02,-183.5 2317.02,-176.5"/>
</g>
<!-- UserInfoService -->
<g id="node45" class="node">
<title>UserInfoService</title>
<ellipse fill="#fdb462" stroke="black" cx="2513" cy="-332" rx="74.11" ry="18"/>
<text text-anchor="middle" x="2513" y="-327.8" font-family="Times,serif" font-size="14.00">UserInfoService</text>
</g>
<!-- UserInfoService&#45;&gt;UserInfosModule -->
<g id="edge50" class="edge">
<title>UserInfoService&#45;&gt;UserInfosModule</title>
<path fill="none" stroke="black" d="M2438.48,-332C2429.13,-332 2422.76,-332 2422.76,-332 2422.76,-332 2422.76,-256 2422.76,-256 2422.76,-256 2017.5,-256 2017.5,-256"/>
<polygon fill="black" stroke="black" points="2017.5,-252.5 2007.5,-256 2017.5,-259.5 2017.5,-252.5"/>
</g>
</g>
</svg>
