<?xml version="1.0" encoding="UTF-8" standalone="no"?>
<!DOCTYPE svg PUBLIC "-//W3C//DTD SVG 1.1//EN"
 "http://www.w3.org/Graphics/SVG/1.1/DTD/svg11.dtd">
<!-- Generated by graphviz version 2.47.0 (20210316.0004)
 -->
<!-- Title: dependencies Pages: 1 -->
<svg width="504pt" height="284pt"
 viewBox="0.00 0.00 504.00 284.00" xmlns="http://www.w3.org/2000/svg" xmlns:xlink="http://www.w3.org/1999/xlink">
<g id="graph0" class="graph" transform="scale(1 1) rotate(0) translate(4 280)">
<title>dependencies</title>
<polygon fill="white" stroke="transparent" points="-4,4 -4,-280 500,-280 500,4 -4,4"/>
<text text-anchor="start" x="227.01" y="-42.4" font-family="Times-12" font-weight="bold" font-size="14.00">Legend</text>
<polygon fill="#ffffb3" stroke="transparent" points="14,-10 14,-30 34,-30 34,-10 14,-10"/>
<text text-anchor="start" x="37.63" y="-15.4" font-family="Times-12" font-size="14.00"> &#160;Declarations</text>
<polygon fill="#8dd3c7" stroke="transparent" points="127,-10 127,-30 147,-30 147,-10 127,-10"/>
<text text-anchor="start" x="150.73" y="-15.4" font-family="Times-12" font-size="14.00"> &#160;Module</text>
<polygon fill="#80b1d3" stroke="transparent" points="213,-10 213,-30 233,-30 233,-10 213,-10"/>
<text text-anchor="start" x="236.78" y="-15.4" font-family="Times-12" font-size="14.00"> &#160;Bootstrap</text>
<polygon fill="#fdb462" stroke="transparent" points="310,-10 310,-30 330,-30 330,-10 310,-10"/>
<text text-anchor="start" x="333.67" y="-15.4" font-family="Times-12" font-size="14.00"> &#160;Providers</text>
<polygon fill="#fb8072" stroke="transparent" points="406,-10 406,-30 426,-30 426,-10 406,-10"/>
<text text-anchor="start" x="429.73" y="-15.4" font-family="Times-12" font-size="14.00"> &#160;Exports</text>
<g id="clust1" class="cluster">
<title>cluster_ChatModule</title>
<polygon fill="none" stroke="black" stroke-dasharray="1,5" points="105,-70 105,-268 391,-268 391,-70 105,-70"/>
</g>
<g id="clust6" class="cluster">
<title>cluster_ChatModule_providers</title>
<polygon fill="none" stroke="black" points="251,-78 251,-130 383,-130 383,-78 251,-78"/>
</g>
<g id="clust3" class="cluster">
<title>cluster_ChatModule_imports</title>
<polygon fill="none" stroke="black" points="113,-78 113,-130 243,-130 243,-78 113,-78"/>
</g>
<g id="clust4" class="cluster">
<title>cluster_ChatModule_exports</title>
<polygon fill="none" stroke="black" points="191,-208 191,-260 303,-260 303,-208 191,-208"/>
</g>
<!-- UserInfosModule -->
<g id="node1" class="node">
<title>UserInfosModule</title>
<polygon fill="#8dd3c7" stroke="black" points="235.24,-122 232.24,-126 211.24,-126 208.24,-122 120.76,-122 120.76,-86 235.24,-86 235.24,-122"/>
<text text-anchor="middle" x="178" y="-99.8" font-family="Times,serif" font-size="14.00">UserInfosModule</text>
</g>
<!-- ChatModule -->
<g id="node2" class="node">
<title>ChatModule</title>
<polygon fill="#8dd3c7" stroke="black" points="289.99,-187 286.99,-191 265.99,-191 262.99,-187 204.01,-187 204.01,-151 289.99,-151 289.99,-187"/>
<text text-anchor="middle" x="247" y="-164.8" font-family="Times,serif" font-size="14.00">ChatModule</text>
</g>
<!-- UserInfosModule&#45;&gt;ChatModule -->
<g id="edge1" class="edge">
<title>UserInfosModule&#45;&gt;ChatModule</title>
<path fill="none" stroke="black" d="M219.69,-122.11C219.69,-122.11 219.69,-140.99 219.69,-140.99"/>
<polygon fill="black" stroke="black" points="216.19,-140.99 219.69,-150.99 223.19,-140.99 216.19,-140.99"/>
</g>
<!-- ChatGateway  -->
<g id="node3" class="node">
<title>ChatGateway </title>
<polygon fill="#fb8072" stroke="black" points="294.69,-252 199.31,-252 199.31,-216 294.69,-216 294.69,-252"/>
<text text-anchor="middle" x="247" y="-229.8" font-family="Times,serif" font-size="14.00">ChatGateway </text>
</g>
<!-- ChatModule&#45;&gt;ChatGateway  -->
<g id="edge2" class="edge">
<title>ChatModule&#45;&gt;ChatGateway </title>
<path fill="none" stroke="black" stroke-dasharray="5,2" d="M247,-187.11C247,-187.11 247,-205.99 247,-205.99"/>
<polygon fill="black" stroke="black" points="243.5,-205.99 247,-215.99 250.5,-205.99 243.5,-205.99"/>
</g>
<!-- ChatService -->
<g id="node4" class="node">
<title>ChatService</title>
<ellipse fill="#fdb462" stroke="black" cx="317" cy="-104" rx="58.46" ry="18"/>
<text text-anchor="middle" x="317" y="-99.8" font-family="Times,serif" font-size="14.00">ChatService</text>
</g>
<!-- ChatService&#45;&gt;ChatModule -->
<g id="edge3" class="edge">
<title>ChatService&#45;&gt;ChatModule</title>
<path fill="none" stroke="black" d="M274.38,-116.53C274.38,-116.53 274.38,-140.85 274.38,-140.85"/>
<polygon fill="black" stroke="black" points="270.88,-140.85 274.38,-150.85 277.88,-140.85 270.88,-140.85"/>
</g>
</g>
</svg>
