<?xml version="1.0" encoding="UTF-8" standalone="no"?>
<!DOCTYPE svg PUBLIC "-//W3C//DTD SVG 1.1//EN"
 "http://www.w3.org/Graphics/SVG/1.1/DTD/svg11.dtd">
<!-- Generated by graphviz version 2.47.0 (20210316.0004)
 -->
<!-- Title: dependencies Pages: 1 -->
<svg width="2910pt" height="211pt"
 viewBox="0.00 0.00 2910.00 211.00" xmlns="http://www.w3.org/2000/svg" xmlns:xlink="http://www.w3.org/1999/xlink">
<g id="graph0" class="graph" transform="scale(1 1) rotate(0) translate(4 207)">
<title>dependencies</title>
<polygon fill="white" stroke="transparent" points="-4,4 -4,-207 2906,-207 2906,4 -4,4"/>
<text text-anchor="start" x="1430.01" y="-42.4" font-family="Times-12" font-weight="bold" font-size="14.00">Legend</text>
<polygon fill="#ffffb3" stroke="transparent" points="1217,-10 1217,-30 1237,-30 1237,-10 1217,-10"/>
<text text-anchor="start" x="1240.63" y="-15.4" font-family="Times-12" font-size="14.00"> &#160;Declarations</text>
<polygon fill="#8dd3c7" stroke="transparent" points="1330,-10 1330,-30 1350,-30 1350,-10 1330,-10"/>
<text text-anchor="start" x="1353.73" y="-15.4" font-family="Times-12" font-size="14.00"> &#160;Module</text>
<polygon fill="#80b1d3" stroke="transparent" points="1416,-10 1416,-30 1436,-30 1436,-10 1416,-10"/>
<text text-anchor="start" x="1439.78" y="-15.4" font-family="Times-12" font-size="14.00"> &#160;Bootstrap</text>
<polygon fill="#fdb462" stroke="transparent" points="1513,-10 1513,-30 1533,-30 1533,-10 1513,-10"/>
<text text-anchor="start" x="1536.67" y="-15.4" font-family="Times-12" font-size="14.00"> &#160;Providers</text>
<polygon fill="#fb8072" stroke="transparent" points="1609,-10 1609,-30 1629,-30 1629,-10 1609,-10"/>
<text text-anchor="start" x="1632.73" y="-15.4" font-family="Times-12" font-size="14.00"> &#160;Exports</text>
<g id="clust1" class="cluster">
<title>cluster_AppModule</title>
<polygon fill="none" stroke="black" stroke-dasharray="1,5" points="8,-70 8,-195 2894,-195 2894,-70 8,-70"/>
</g>
<g id="clust6" class="cluster">
<title>cluster_AppModule_providers</title>
<polygon fill="none" stroke="black" points="2275,-78 2275,-130 2886,-130 2886,-78 2275,-78"/>
</g>
<g id="clust3" class="cluster">
<title>cluster_AppModule_imports</title>
<polygon fill="none" stroke="black" points="16,-78 16,-130 2267,-130 2267,-78 16,-78"/>
</g>
<!-- AuthModule -->
<g id="node1" class="node">
<title>AuthModule</title>
<polygon fill="#8dd3c7" stroke="black" points="2258.55,-122 2255.55,-126 2234.55,-126 2231.55,-122 2171.45,-122 2171.45,-86 2258.55,-86 2258.55,-122"/>
<text text-anchor="middle" x="2215" y="-99.8" font-family="Times,serif" font-size="14.00">AuthModule</text>
</g>
<!-- AppModule -->
<g id="node19" class="node">
<title>AppModule</title>
<polygon fill="#8dd3c7" stroke="black" points="1381.66,-187 1378.66,-191 1357.66,-191 1354.66,-187 1298.34,-187 1298.34,-151 1381.66,-151 1381.66,-187"/>
<text text-anchor="middle" x="1340" y="-164.8" font-family="Times,serif" font-size="14.00">AppModule</text>
</g>
<!-- AuthModule&#45;&gt;AppModule -->
<g id="edge1" class="edge">
<title>AuthModule&#45;&gt;AppModule</title>
<path fill="none" stroke="black" d="M2215,-122.22C2215,-142.37 2215,-172 2215,-172 2215,-172 1391.91,-172 1391.91,-172"/>
<polygon fill="black" stroke="black" points="1391.91,-168.5 1381.91,-172 1391.91,-175.5 1391.91,-168.5"/>
</g>
<!-- BetaUsersModule -->
<g id="node2" class="node">
<title>BetaUsersModule</title>
<polygon fill="#8dd3c7" stroke="black" points="2153.58,-122 2150.58,-126 2129.58,-126 2126.58,-122 2036.42,-122 2036.42,-86 2153.58,-86 2153.58,-122"/>
<text text-anchor="middle" x="2095" y="-99.8" font-family="Times,serif" font-size="14.00">BetaUsersModule</text>
</g>
<!-- BetaUsersModule&#45;&gt;AppModule -->
<g id="edge2" class="edge">
<title>BetaUsersModule&#45;&gt;AppModule</title>
<path fill="none" stroke="black" d="M2095,-122.11C2095,-141.34 2095,-169 2095,-169 2095,-169 1391.67,-169 1391.67,-169"/>
<polygon fill="black" stroke="black" points="1391.67,-165.5 1381.67,-169 1391.67,-172.5 1391.67,-165.5"/>
</g>
<!-- BugsBetaModule -->
<g id="node3" class="node">
<title>BugsBetaModule</title>
<polygon fill="#8dd3c7" stroke="black" points="2017.99,-122 2014.99,-126 1993.99,-126 1990.99,-122 1904.01,-122 1904.01,-86 2017.99,-86 2017.99,-122"/>
<text text-anchor="middle" x="1961" y="-99.8" font-family="Times,serif" font-size="14.00">BugsBetaModule</text>
</g>
<!-- BugsBetaModule&#45;&gt;AppModule -->
<g id="edge3" class="edge">
<title>BugsBetaModule&#45;&gt;AppModule</title>
<path fill="none" stroke="black" d="M1961,-122.22C1961,-140.83 1961,-167 1961,-167 1961,-167 1391.71,-167 1391.71,-167"/>
<polygon fill="black" stroke="black" points="1391.71,-163.5 1381.71,-167 1391.71,-170.5 1391.71,-163.5"/>
</g>
<!-- CaloriesModule -->
<g id="node4" class="node">
<title>CaloriesModule</title>
<polygon fill="#8dd3c7" stroke="black" points="1886.2,-122 1883.2,-126 1862.2,-126 1859.2,-122 1779.8,-122 1779.8,-86 1886.2,-86 1886.2,-122"/>
<text text-anchor="middle" x="1833" y="-99.8" font-family="Times,serif" font-size="14.00">CaloriesModule</text>
</g>
<!-- CaloriesModule&#45;&gt;AppModule -->
<g id="edge4" class="edge">
<title>CaloriesModule&#45;&gt;AppModule</title>
<path fill="none" stroke="black" d="M1833,-122.02C1833,-139.37 1833,-163 1833,-163 1833,-163 1392.03,-163 1392.03,-163"/>
<polygon fill="black" stroke="black" points="1392.03,-159.5 1382.03,-163 1392.03,-166.5 1392.03,-159.5"/>
</g>
<!-- ChatModule -->
<g id="node5" class="node">
<title>ChatModule</title>
<polygon fill="#8dd3c7" stroke="black" points="1761.99,-122 1758.99,-126 1737.99,-126 1734.99,-122 1676.01,-122 1676.01,-86 1761.99,-86 1761.99,-122"/>
<text text-anchor="middle" x="1719" y="-99.8" font-family="Times,serif" font-size="14.00">ChatModule</text>
</g>
<!-- ChatModule&#45;&gt;AppModule -->
<g id="edge5" class="edge">
<title>ChatModule&#45;&gt;AppModule</title>
<path fill="none" stroke="black" d="M1719,-122.03C1719,-138.4 1719,-160 1719,-160 1719,-160 1392.01,-160 1392.01,-160"/>
<polygon fill="black" stroke="black" points="1392.01,-156.5 1382.01,-160 1392.01,-163.5 1392.01,-156.5"/>
</g>
<!-- ExercisesLibraryModule -->
<g id="node6" class="node">
<title>ExercisesLibraryModule</title>
<polygon fill="#8dd3c7" stroke="black" points="1657.67,-122 1654.67,-126 1633.67,-126 1630.67,-122 1502.33,-122 1502.33,-86 1657.67,-86 1657.67,-122"/>
<text text-anchor="middle" x="1580" y="-99.8" font-family="Times,serif" font-size="14.00">ExercisesLibraryModule</text>
</g>
<!-- ExercisesLibraryModule&#45;&gt;AppModule -->
<g id="edge6" class="edge">
<title>ExercisesLibraryModule&#45;&gt;AppModule</title>
<path fill="none" stroke="black" d="M1580,-122.24C1580,-137.57 1580,-157 1580,-157 1580,-157 1391.8,-157 1391.8,-157"/>
<polygon fill="black" stroke="black" points="1391.8,-153.5 1381.8,-157 1391.8,-160.5 1391.8,-153.5"/>
</g>
<!-- FileModule -->
<g id="node7" class="node">
<title>FileModule</title>
<polygon fill="#8dd3c7" stroke="black" points="1484.83,-122 1481.83,-126 1460.83,-126 1457.83,-122 1403.17,-122 1403.17,-86 1484.83,-86 1484.83,-122"/>
<text text-anchor="middle" x="1444" y="-99.8" font-family="Times,serif" font-size="14.00">FileModule</text>
</g>
<!-- FileModule&#45;&gt;AppModule -->
<g id="edge7" class="edge">
<title>FileModule&#45;&gt;AppModule</title>
<path fill="none" stroke="black" d="M1444,-122.05C1444,-136.37 1444,-154 1444,-154 1444,-154 1391.7,-154 1391.7,-154"/>
<polygon fill="black" stroke="black" points="1391.7,-150.5 1381.7,-154 1391.7,-157.5 1391.7,-150.5"/>
</g>
<!-- FormModule -->
<g id="node8" class="node">
<title>FormModule</title>
<polygon fill="#8dd3c7" stroke="black" points="1384.88,-122 1381.88,-126 1360.88,-126 1357.88,-122 1295.12,-122 1295.12,-86 1384.88,-86 1384.88,-122"/>
<text text-anchor="middle" x="1340" y="-99.8" font-family="Times,serif" font-size="14.00">FormModule</text>
</g>
<!-- FormModule&#45;&gt;AppModule -->
<g id="edge8" class="edge">
<title>FormModule&#45;&gt;AppModule</title>
<path fill="none" stroke="black" d="M1340,-122.11C1340,-122.11 1340,-140.99 1340,-140.99"/>
<polygon fill="black" stroke="black" points="1336.5,-140.99 1340,-150.99 1343.5,-140.99 1336.5,-140.99"/>
</g>
<!-- MealsModule -->
<g id="node9" class="node">
<title>MealsModule</title>
<polygon fill="#8dd3c7" stroke="black" points="1276.76,-122 1273.76,-126 1252.76,-126 1249.76,-122 1183.24,-122 1183.24,-86 1276.76,-86 1276.76,-122"/>
<text text-anchor="middle" x="1230" y="-99.8" font-family="Times,serif" font-size="14.00">MealsModule</text>
</g>
<!-- MealsModule&#45;&gt;AppModule -->
<g id="edge9" class="edge">
<title>MealsModule&#45;&gt;AppModule</title>
<path fill="none" stroke="black" d="M1230,-122.05C1230,-136.37 1230,-154 1230,-154 1230,-154 1288.1,-154 1288.1,-154"/>
<polygon fill="black" stroke="black" points="1288.1,-157.5 1298.1,-154 1288.1,-150.5 1288.1,-157.5"/>
</g>
<!-- MessagesModule -->
<g id="node10" class="node">
<title>MessagesModule</title>
<polygon fill="#8dd3c7" stroke="black" points="1164.97,-122 1161.97,-126 1140.97,-126 1137.97,-122 1051.03,-122 1051.03,-86 1164.97,-86 1164.97,-122"/>
<text text-anchor="middle" x="1108" y="-99.8" font-family="Times,serif" font-size="14.00">MessagesModule</text>
</g>
<!-- MessagesModule&#45;&gt;AppModule -->
<g id="edge10" class="edge">
<title>MessagesModule&#45;&gt;AppModule</title>
<path fill="none" stroke="black" d="M1108,-122.24C1108,-137.57 1108,-157 1108,-157 1108,-157 1288.26,-157 1288.26,-157"/>
<polygon fill="black" stroke="black" points="1288.26,-160.5 1298.26,-157 1288.26,-153.5 1288.26,-160.5"/>
</g>
<!-- OpenffModule -->
<g id="node11" class="node">
<title>OpenffModule</title>
<polygon fill="#8dd3c7" stroke="black" points="1032.69,-122 1029.69,-126 1008.69,-126 1005.69,-122 933.31,-122 933.31,-86 1032.69,-86 1032.69,-122"/>
<text text-anchor="middle" x="983" y="-99.8" font-family="Times,serif" font-size="14.00">OpenffModule</text>
</g>
<!-- OpenffModule&#45;&gt;AppModule -->
<g id="edge11" class="edge">
<title>OpenffModule&#45;&gt;AppModule</title>
<path fill="none" stroke="black" d="M983,-122.03C983,-138.4 983,-160 983,-160 983,-160 1288,-160 1288,-160"/>
<polygon fill="black" stroke="black" points="1288,-163.5 1298,-160 1288,-156.5 1288,-163.5"/>
</g>
<!-- PlanningModule -->
<g id="node12" class="node">
<title>PlanningModule</title>
<polygon fill="#8dd3c7" stroke="black" points="915.83,-122 912.83,-126 891.83,-126 888.83,-122 806.17,-122 806.17,-86 915.83,-86 915.83,-122"/>
<text text-anchor="middle" x="861" y="-99.8" font-family="Times,serif" font-size="14.00">PlanningModule</text>
</g>
<!-- PlanningModule&#45;&gt;AppModule -->
<g id="edge12" class="edge">
<title>PlanningModule&#45;&gt;AppModule</title>
<path fill="none" stroke="black" d="M861,-122.02C861,-139.37 861,-163 861,-163 861,-163 1288.33,-163 1288.33,-163"/>
<polygon fill="black" stroke="black" points="1288.33,-166.5 1298.33,-163 1288.33,-159.5 1288.33,-166.5"/>
</g>
<!-- PreferencesModule -->
<g id="node13" class="node">
<title>PreferencesModule</title>
<polygon fill="#8dd3c7" stroke="black" points="788.33,-122 785.33,-126 764.33,-126 761.33,-122 663.67,-122 663.67,-86 788.33,-86 788.33,-122"/>
<text text-anchor="middle" x="726" y="-99.8" font-family="Times,serif" font-size="14.00">PreferencesModule</text>
</g>
<!-- PreferencesModule&#45;&gt;AppModule -->
<g id="edge13" class="edge">
<title>PreferencesModule&#45;&gt;AppModule</title>
<path fill="none" stroke="black" d="M726,-122.22C726,-140.83 726,-167 726,-167 726,-167 1288.28,-167 1288.28,-167"/>
<polygon fill="black" stroke="black" points="1288.28,-170.5 1298.28,-167 1288.28,-163.5 1288.28,-170.5"/>
</g>
<!-- PrismaModule -->
<g id="node14" class="node">
<title>PrismaModule</title>
<polygon fill="#8dd3c7" stroke="black" points="645.43,-122 642.43,-126 621.43,-126 618.43,-122 546.57,-122 546.57,-86 645.43,-86 645.43,-122"/>
<text text-anchor="middle" x="596" y="-99.8" font-family="Times,serif" font-size="14.00">PrismaModule</text>
</g>
<!-- PrismaModule&#45;&gt;AppModule -->
<g id="edge14" class="edge">
<title>PrismaModule&#45;&gt;AppModule</title>
<path fill="none" stroke="black" d="M596,-122.11C596,-141.34 596,-169 596,-169 596,-169 1288.14,-169 1288.14,-169"/>
<polygon fill="black" stroke="black" points="1288.14,-172.5 1298.14,-169 1288.14,-165.5 1288.14,-172.5"/>
</g>
<!-- ReportsModule -->
<g id="node15" class="node">
<title>ReportsModule</title>
<polygon fill="#8dd3c7" stroke="black" points="528.6,-122 525.6,-126 504.6,-126 501.6,-122 425.4,-122 425.4,-86 528.6,-86 528.6,-122"/>
<text text-anchor="middle" x="477" y="-99.8" font-family="Times,serif" font-size="14.00">ReportsModule</text>
</g>
<!-- ReportsModule&#45;&gt;AppModule -->
<g id="edge15" class="edge">
<title>ReportsModule&#45;&gt;AppModule</title>
<path fill="none" stroke="black" d="M494.18,-122.22C494.18,-142.37 494.18,-172 494.18,-172 494.18,-172 1288.06,-172 1288.06,-172"/>
<polygon fill="black" stroke="black" points="1288.06,-175.5 1298.06,-172 1288.06,-168.5 1288.06,-175.5"/>
</g>
<!-- ReportsModule&#45;&gt;AppModule -->
<g id="edge16" class="edge">
<title>ReportsModule&#45;&gt;AppModule</title>
<path fill="none" stroke="black" d="M459.82,-122.28C459.82,-143.32 459.82,-175 459.82,-175 459.82,-175 1288.14,-175 1288.14,-175"/>
<polygon fill="black" stroke="black" points="1288.14,-178.5 1298.14,-175 1288.14,-171.5 1288.14,-178.5"/>
</g>
<!-- SportsExerciseModule -->
<g id="node16" class="node">
<title>SportsExerciseModule</title>
<polygon fill="#8dd3c7" stroke="black" points="407.52,-122 404.52,-126 383.52,-126 380.52,-122 264.48,-122 264.48,-86 407.52,-86 407.52,-122"/>
<text text-anchor="middle" x="336" y="-99.8" font-family="Times,serif" font-size="14.00">SportsExerciseModule</text>
</g>
<!-- SportsExerciseModule&#45;&gt;AppModule -->
<g id="edge17" class="edge">
<title>SportsExerciseModule&#45;&gt;AppModule</title>
<path fill="none" stroke="black" d="M336,-122.29C336,-144.21 336,-178 336,-178 336,-178 1288.14,-178 1288.14,-178"/>
<polygon fill="black" stroke="black" points="1288.14,-181.5 1298.14,-178 1288.14,-174.5 1288.14,-181.5"/>
</g>
<!-- StepsModule -->
<g id="node17" class="node">
<title>StepsModule</title>
<polygon fill="#8dd3c7" stroke="black" points="245.88,-122 242.88,-126 221.88,-126 218.88,-122 156.12,-122 156.12,-86 245.88,-86 245.88,-122"/>
<text text-anchor="middle" x="201" y="-99.8" font-family="Times,serif" font-size="14.00">StepsModule</text>
</g>
<!-- StepsModule&#45;&gt;AppModule -->
<g id="edge18" class="edge">
<title>StepsModule&#45;&gt;AppModule</title>
<path fill="none" stroke="black" d="M201,-122.09C201,-145.13 201,-182 201,-182 201,-182 1288.11,-182 1288.11,-182"/>
<polygon fill="black" stroke="black" points="1288.11,-185.5 1298.11,-182 1288.11,-178.5 1288.11,-185.5"/>
</g>
<!-- UserInfosModule -->
<g id="node18" class="node">
<title>UserInfosModule</title>
<polygon fill="#8dd3c7" stroke="black" points="138.24,-122 135.24,-126 114.24,-126 111.24,-122 23.76,-122 23.76,-86 138.24,-86 138.24,-122"/>
<text text-anchor="middle" x="81" y="-99.8" font-family="Times,serif" font-size="14.00">UserInfosModule</text>
</g>
<!-- UserInfosModule&#45;&gt;AppModule -->
<g id="edge19" class="edge">
<title>UserInfosModule&#45;&gt;AppModule</title>
<path fill="none" stroke="black" d="M81,-122.15C81,-145.76 81,-184 81,-184 81,-184 1288.11,-184 1288.11,-184"/>
<polygon fill="black" stroke="black" points="1288.11,-187.5 1298.11,-184 1288.11,-180.5 1288.11,-187.5"/>
</g>
<!-- AppService -->
<g id="node20" class="node">
<title>AppService</title>
<ellipse fill="#fdb462" stroke="black" cx="2821" cy="-104" rx="56.74" ry="18"/>
<text text-anchor="middle" x="2821" y="-99.8" font-family="Times,serif" font-size="14.00">AppService</text>
</g>
<!-- AppService&#45;&gt;AppModule -->
<g id="edge20" class="edge">
<title>AppService&#45;&gt;AppModule</title>
<path fill="none" stroke="black" d="M2821,-122.15C2821,-145.76 2821,-184 2821,-184 2821,-184 1391.94,-184 1391.94,-184"/>
<polygon fill="black" stroke="black" points="1391.94,-180.5 1381.94,-184 1391.94,-187.5 1391.94,-180.5"/>
</g>
<!-- BugsBetaService -->
<g id="node21" class="node">
<title>BugsBetaService</title>
<ellipse fill="#fdb462" stroke="black" cx="2669" cy="-104" rx="77.58" ry="18"/>
<text text-anchor="middle" x="2669" y="-99.8" font-family="Times,serif" font-size="14.00">BugsBetaService</text>
</g>
<!-- BugsBetaService&#45;&gt;AppModule -->
<g id="edge21" class="edge">
<title>BugsBetaService&#45;&gt;AppModule</title>
<path fill="none" stroke="black" d="M2669,-122.09C2669,-145.13 2669,-182 2669,-182 2669,-182 1391.97,-182 1391.97,-182"/>
<polygon fill="black" stroke="black" points="1391.97,-178.5 1381.97,-182 1391.97,-185.5 1391.97,-178.5"/>
</g>
<!-- CaloriesService -->
<g id="node22" class="node">
<title>CaloriesService</title>
<ellipse fill="#fdb462" stroke="black" cx="2501" cy="-104" rx="72.34" ry="18"/>
<text text-anchor="middle" x="2501" y="-99.8" font-family="Times,serif" font-size="14.00">CaloriesService</text>
</g>
<!-- CaloriesService&#45;&gt;AppModule -->
<g id="edge22" class="edge">
<title>CaloriesService&#45;&gt;AppModule</title>
<path fill="none" stroke="black" d="M2501,-122.29C2501,-144.21 2501,-178 2501,-178 2501,-178 1391.66,-178 1391.66,-178"/>
<polygon fill="black" stroke="black" points="1391.66,-174.5 1381.66,-178 1391.66,-181.5 1391.66,-174.5"/>
</g>
<!-- MealsService -->
<g id="node23" class="node">
<title>MealsService</title>
<ellipse fill="#fdb462" stroke="black" cx="2347" cy="-104" rx="63.68" ry="18"/>
<text text-anchor="middle" x="2347" y="-99.8" font-family="Times,serif" font-size="14.00">MealsService</text>
</g>
<!-- MealsService&#45;&gt;AppModule -->
<g id="edge23" class="edge">
<title>MealsService&#45;&gt;AppModule</title>
<path fill="none" stroke="black" d="M2347,-122.28C2347,-143.32 2347,-175 2347,-175 2347,-175 1391.67,-175 1391.67,-175"/>
<polygon fill="black" stroke="black" points="1391.67,-171.5 1381.67,-175 1391.67,-178.5 1391.67,-171.5"/>
</g>
</g>
</svg>
