<?xml version="1.0" encoding="UTF-8" standalone="no"?>
<!DOCTYPE svg PUBLIC "-//W3C//DTD SVG 1.1//EN"
 "http://www.w3.org/Graphics/SVG/1.1/DTD/svg11.dtd">
<!-- Generated by graphviz version 2.47.0 (20210316.0004)
 -->
<!-- Title: dependencies Pages: 1 -->
<svg width="2380pt" height="211pt"
 viewBox="0.00 0.00 2380.00 211.00" xmlns="http://www.w3.org/2000/svg" xmlns:xlink="http://www.w3.org/1999/xlink">
<g id="graph0" class="graph" transform="scale(1 1) rotate(0) translate(4 207)">
<title>dependencies</title>
<polygon fill="white" stroke="transparent" points="-4,4 -4,-207 2376,-207 2376,4 -4,4"/>
<text text-anchor="start" x="1165.01" y="-42.4" font-family="Times-12" font-weight="bold" font-size="14.00">Legend</text>
<polygon fill="#ffffb3" stroke="transparent" points="952,-10 952,-30 972,-30 972,-10 952,-10"/>
<text text-anchor="start" x="975.63" y="-15.4" font-family="Times-12" font-size="14.00"> &#160;Declarations</text>
<polygon fill="#8dd3c7" stroke="transparent" points="1065,-10 1065,-30 1085,-30 1085,-10 1065,-10"/>
<text text-anchor="start" x="1088.73" y="-15.4" font-family="Times-12" font-size="14.00"> &#160;Module</text>
<polygon fill="#80b1d3" stroke="transparent" points="1151,-10 1151,-30 1171,-30 1171,-10 1151,-10"/>
<text text-anchor="start" x="1174.78" y="-15.4" font-family="Times-12" font-size="14.00"> &#160;Bootstrap</text>
<polygon fill="#fdb462" stroke="transparent" points="1248,-10 1248,-30 1268,-30 1268,-10 1248,-10"/>
<text text-anchor="start" x="1271.67" y="-15.4" font-family="Times-12" font-size="14.00"> &#160;Providers</text>
<polygon fill="#fb8072" stroke="transparent" points="1344,-10 1344,-30 1364,-30 1364,-10 1344,-10"/>
<text text-anchor="start" x="1367.73" y="-15.4" font-family="Times-12" font-size="14.00"> &#160;Exports</text>
<g id="clust1" class="cluster">
<title>cluster_AppModule</title>
<polygon fill="none" stroke="black" stroke-dasharray="1,5" points="8,-70 8,-195 2364,-195 2364,-70 8,-70"/>
</g>
<g id="clust3" class="cluster">
<title>cluster_AppModule_imports</title>
<polygon fill="none" stroke="black" points="322,-78 322,-130 2356,-130 2356,-78 322,-78"/>
</g>
<g id="clust6" class="cluster">
<title>cluster_AppModule_providers</title>
<polygon fill="none" stroke="black" points="16,-78 16,-130 314,-130 314,-78 16,-78"/>
</g>
<!-- AuthModule -->
<g id="node1" class="node">
<title>AuthModule</title>
<polygon fill="#8dd3c7" stroke="black" points="2347.55,-122 2344.55,-126 2323.55,-126 2320.55,-122 2260.45,-122 2260.45,-86 2347.55,-86 2347.55,-122"/>
<text text-anchor="middle" x="2304" y="-99.8" font-family="Times,serif" font-size="14.00">AuthModule</text>
</g>
<!-- AppModule -->
<g id="node17" class="node">
<title>AppModule</title>
<polygon fill="#8dd3c7" stroke="black" points="1176.66,-187 1173.66,-191 1152.66,-191 1149.66,-187 1093.34,-187 1093.34,-151 1176.66,-151 1176.66,-187"/>
<text text-anchor="middle" x="1135" y="-164.8" font-family="Times,serif" font-size="14.00">AppModule</text>
</g>
<!-- AuthModule&#45;&gt;AppModule -->
<g id="edge1" class="edge">
<title>AuthModule&#45;&gt;AppModule</title>
<path fill="none" stroke="black" d="M2304,-122.15C2304,-145.76 2304,-184 2304,-184 2304,-184 1186.95,-184 1186.95,-184"/>
<polygon fill="black" stroke="black" points="1186.95,-180.5 1176.95,-184 1186.95,-187.5 1186.95,-180.5"/>
</g>
<!-- ChatModule -->
<g id="node2" class="node">
<title>ChatModule</title>
<polygon fill="#8dd3c7" stroke="black" points="2241.99,-122 2238.99,-126 2217.99,-126 2214.99,-122 2156.01,-122 2156.01,-86 2241.99,-86 2241.99,-122"/>
<text text-anchor="middle" x="2199" y="-99.8" font-family="Times,serif" font-size="14.00">ChatModule</text>
</g>
<!-- ChatModule&#45;&gt;AppModule -->
<g id="edge2" class="edge">
<title>ChatModule&#45;&gt;AppModule</title>
<path fill="none" stroke="black" d="M2199,-122.01C2199,-144.49 2199,-180 2199,-180 2199,-180 1186.71,-180 1186.71,-180"/>
<polygon fill="black" stroke="black" points="1186.71,-176.5 1176.71,-180 1186.71,-183.5 1186.71,-176.5"/>
</g>
<!-- ExercisesLibraryModule -->
<g id="node3" class="node">
<title>ExercisesLibraryModule</title>
<polygon fill="#8dd3c7" stroke="black" points="2137.67,-122 2134.67,-126 2113.67,-126 2110.67,-122 1982.33,-122 1982.33,-86 2137.67,-86 2137.67,-122"/>
<text text-anchor="middle" x="2060" y="-99.8" font-family="Times,serif" font-size="14.00">ExercisesLibraryModule</text>
</g>
<!-- ExercisesLibraryModule&#45;&gt;AppModule -->
<g id="edge3" class="edge">
<title>ExercisesLibraryModule&#45;&gt;AppModule</title>
<path fill="none" stroke="black" d="M2060,-122.04C2060,-143.66 2060,-177 2060,-177 2060,-177 1186.85,-177 1186.85,-177"/>
<polygon fill="black" stroke="black" points="1186.85,-173.5 1176.85,-177 1186.85,-180.5 1186.85,-173.5"/>
</g>
<!-- FeedbackUserModule -->
<g id="node4" class="node">
<title>FeedbackUserModule</title>
<polygon fill="#8dd3c7" stroke="black" points="1964.62,-122 1961.62,-126 1940.62,-126 1937.62,-122 1825.38,-122 1825.38,-86 1964.62,-86 1964.62,-122"/>
<text text-anchor="middle" x="1895" y="-99.8" font-family="Times,serif" font-size="14.00">FeedbackUserModule</text>
</g>
<!-- FeedbackUserModule&#45;&gt;AppModule -->
<g id="edge4" class="edge">
<title>FeedbackUserModule&#45;&gt;AppModule</title>
<path fill="none" stroke="black" d="M1895,-122.13C1895,-142.57 1895,-173 1895,-173 1895,-173 1186.67,-173 1186.67,-173"/>
<polygon fill="black" stroke="black" points="1186.67,-169.5 1176.67,-173 1186.67,-176.5 1186.67,-169.5"/>
</g>
<!-- FileModule -->
<g id="node5" class="node">
<title>FileModule</title>
<polygon fill="#8dd3c7" stroke="black" points="1807.83,-122 1804.83,-126 1783.83,-126 1780.83,-122 1726.17,-122 1726.17,-86 1807.83,-86 1807.83,-122"/>
<text text-anchor="middle" x="1767" y="-99.8" font-family="Times,serif" font-size="14.00">FileModule</text>
</g>
<!-- FileModule&#45;&gt;AppModule -->
<g id="edge5" class="edge">
<title>FileModule&#45;&gt;AppModule</title>
<path fill="none" stroke="black" d="M1767,-122.11C1767,-141.34 1767,-169 1767,-169 1767,-169 1186.96,-169 1186.96,-169"/>
<polygon fill="black" stroke="black" points="1186.96,-165.5 1176.96,-169 1186.96,-172.5 1186.96,-165.5"/>
</g>
<!-- MealRecoModule -->
<g id="node6" class="node">
<title>MealRecoModule</title>
<polygon fill="#8dd3c7" stroke="black" points="1708.58,-122 1705.58,-126 1684.58,-126 1681.58,-122 1591.42,-122 1591.42,-86 1708.58,-86 1708.58,-122"/>
<text text-anchor="middle" x="1650" y="-99.8" font-family="Times,serif" font-size="14.00">MealRecoModule</text>
</g>
<!-- MealRecoModule&#45;&gt;AppModule -->
<g id="edge6" class="edge">
<title>MealRecoModule&#45;&gt;AppModule</title>
<path fill="none" stroke="black" d="M1650,-122.27C1650,-140.56 1650,-166 1650,-166 1650,-166 1186.71,-166 1186.71,-166"/>
<polygon fill="black" stroke="black" points="1186.71,-162.5 1176.71,-166 1186.71,-169.5 1186.71,-162.5"/>
</g>
<!-- NutritionModule -->
<g id="node7" class="node">
<title>NutritionModule</title>
<polygon fill="#8dd3c7" stroke="black" points="1573.38,-122 1570.38,-126 1549.38,-126 1546.38,-122 1462.62,-122 1462.62,-86 1573.38,-86 1573.38,-122"/>
<text text-anchor="middle" x="1518" y="-99.8" font-family="Times,serif" font-size="14.00">NutritionModule</text>
</g>
<!-- NutritionModule&#45;&gt;AppModule -->
<g id="edge7" class="edge">
<title>NutritionModule&#45;&gt;AppModule</title>
<path fill="none" stroke="black" d="M1518,-122.03C1518,-139.06 1518,-162 1518,-162 1518,-162 1186.72,-162 1186.72,-162"/>
<polygon fill="black" stroke="black" points="1186.72,-158.5 1176.72,-162 1186.72,-165.5 1186.72,-158.5"/>
</g>
<!-- OpenffModule -->
<g id="node8" class="node">
<title>OpenffModule</title>
<polygon fill="#8dd3c7" stroke="black" points="1444.69,-122 1441.69,-126 1420.69,-126 1417.69,-122 1345.31,-122 1345.31,-86 1444.69,-86 1444.69,-122"/>
<text text-anchor="middle" x="1395" y="-99.8" font-family="Times,serif" font-size="14.00">OpenffModule</text>
</g>
<!-- OpenffModule&#45;&gt;AppModule -->
<g id="edge8" class="edge">
<title>OpenffModule&#45;&gt;AppModule</title>
<path fill="none" stroke="black" d="M1395,-122.01C1395,-138.05 1395,-159 1395,-159 1395,-159 1186.77,-159 1186.77,-159"/>
<polygon fill="black" stroke="black" points="1186.77,-155.5 1176.77,-159 1186.77,-162.5 1186.77,-155.5"/>
</g>
<!-- PreferencesModule -->
<g id="node9" class="node">
<title>PreferencesModule</title>
<polygon fill="#8dd3c7" stroke="black" points="1327.33,-122 1324.33,-126 1303.33,-126 1300.33,-122 1202.67,-122 1202.67,-86 1327.33,-86 1327.33,-122"/>
<text text-anchor="middle" x="1265" y="-99.8" font-family="Times,serif" font-size="14.00">PreferencesModule</text>
</g>
<!-- PreferencesModule&#45;&gt;AppModule -->
<g id="edge9" class="edge">
<title>PreferencesModule&#45;&gt;AppModule</title>
<path fill="none" stroke="black" d="M1265,-122.12C1265,-136.78 1265,-155 1265,-155 1265,-155 1186.85,-155 1186.85,-155"/>
<polygon fill="black" stroke="black" points="1186.85,-151.5 1176.85,-155 1186.85,-158.5 1186.85,-151.5"/>
</g>
<!-- PrismaModule -->
<g id="node10" class="node">
<title>PrismaModule</title>
<polygon fill="#8dd3c7" stroke="black" points="1184.43,-122 1181.43,-126 1160.43,-126 1157.43,-122 1085.57,-122 1085.57,-86 1184.43,-86 1184.43,-122"/>
<text text-anchor="middle" x="1135" y="-99.8" font-family="Times,serif" font-size="14.00">PrismaModule</text>
</g>
<!-- PrismaModule&#45;&gt;AppModule -->
<g id="edge10" class="edge">
<title>PrismaModule&#45;&gt;AppModule</title>
<path fill="none" stroke="black" d="M1135,-122.11C1135,-122.11 1135,-140.99 1135,-140.99"/>
<polygon fill="black" stroke="black" points="1131.5,-140.99 1135,-150.99 1138.5,-140.99 1131.5,-140.99"/>
</g>
<!-- ReportsModule -->
<g id="node11" class="node">
<title>ReportsModule</title>
<polygon fill="#8dd3c7" stroke="black" points="1067.6,-122 1064.6,-126 1043.6,-126 1040.6,-122 964.4,-122 964.4,-86 1067.6,-86 1067.6,-122"/>
<text text-anchor="middle" x="1016" y="-99.8" font-family="Times,serif" font-size="14.00">ReportsModule</text>
</g>
<!-- ReportsModule&#45;&gt;AppModule -->
<g id="edge11" class="edge">
<title>ReportsModule&#45;&gt;AppModule</title>
<path fill="none" stroke="black" d="M1033.18,-122.12C1033.18,-136.78 1033.18,-155 1033.18,-155 1033.18,-155 1083.29,-155 1083.29,-155"/>
<polygon fill="black" stroke="black" points="1083.29,-158.5 1093.29,-155 1083.29,-151.5 1083.29,-158.5"/>
</g>
<!-- ReportsModule&#45;&gt;AppModule -->
<g id="edge12" class="edge">
<title>ReportsModule&#45;&gt;AppModule</title>
<path fill="none" stroke="black" d="M998.82,-122.01C998.82,-138.05 998.82,-159 998.82,-159 998.82,-159 1083.03,-159 1083.03,-159"/>
<polygon fill="black" stroke="black" points="1083.03,-162.5 1093.03,-159 1083.03,-155.5 1083.03,-162.5"/>
</g>
<!-- StepsModule -->
<g id="node12" class="node">
<title>StepsModule</title>
<polygon fill="#8dd3c7" stroke="black" points="946.88,-122 943.88,-126 922.88,-126 919.88,-122 857.12,-122 857.12,-86 946.88,-86 946.88,-122"/>
<text text-anchor="middle" x="902" y="-99.8" font-family="Times,serif" font-size="14.00">StepsModule</text>
</g>
<!-- StepsModule&#45;&gt;AppModule -->
<g id="edge13" class="edge">
<title>StepsModule&#45;&gt;AppModule</title>
<path fill="none" stroke="black" d="M902,-122.03C902,-139.06 902,-162 902,-162 902,-162 1083.08,-162 1083.08,-162"/>
<polygon fill="black" stroke="black" points="1083.08,-165.5 1093.08,-162 1083.08,-158.5 1083.08,-165.5"/>
</g>
<!-- TicketsModule -->
<g id="node13" class="node">
<title>TicketsModule</title>
<polygon fill="#8dd3c7" stroke="black" points="839.26,-122 836.26,-126 815.26,-126 812.26,-122 738.74,-122 738.74,-86 839.26,-86 839.26,-122"/>
<text text-anchor="middle" x="789" y="-99.8" font-family="Times,serif" font-size="14.00">TicketsModule</text>
</g>
<!-- TicketsModule&#45;&gt;AppModule -->
<g id="edge14" class="edge">
<title>TicketsModule&#45;&gt;AppModule</title>
<path fill="none" stroke="black" d="M789,-122.27C789,-140.56 789,-166 789,-166 789,-166 1083.26,-166 1083.26,-166"/>
<polygon fill="black" stroke="black" points="1083.26,-169.5 1093.26,-166 1083.26,-162.5 1083.26,-169.5"/>
</g>
<!-- UserAdminModule -->
<g id="node14" class="node">
<title>UserAdminModule</title>
<polygon fill="#8dd3c7" stroke="black" points="720.36,-122 717.36,-126 696.36,-126 693.36,-122 595.64,-122 595.64,-86 720.36,-86 720.36,-122"/>
<text text-anchor="middle" x="658" y="-99.8" font-family="Times,serif" font-size="14.00">UserAdminModule</text>
</g>
<!-- UserAdminModule&#45;&gt;AppModule -->
<g id="edge15" class="edge">
<title>UserAdminModule&#45;&gt;AppModule</title>
<path fill="none" stroke="black" d="M658,-122.11C658,-141.34 658,-169 658,-169 658,-169 1083.09,-169 1083.09,-169"/>
<polygon fill="black" stroke="black" points="1083.09,-172.5 1093.09,-169 1083.09,-165.5 1083.09,-172.5"/>
</g>
<!-- UserInfosModule -->
<g id="node15" class="node">
<title>UserInfosModule</title>
<polygon fill="#8dd3c7" stroke="black" points="577.24,-122 574.24,-126 553.24,-126 550.24,-122 462.76,-122 462.76,-86 577.24,-86 577.24,-122"/>
<text text-anchor="middle" x="520" y="-99.8" font-family="Times,serif" font-size="14.00">UserInfosModule</text>
</g>
<!-- UserInfosModule&#45;&gt;AppModule -->
<g id="edge16" class="edge">
<title>UserInfosModule&#45;&gt;AppModule</title>
<path fill="none" stroke="black" d="M520,-122.13C520,-142.57 520,-173 520,-173 520,-173 1083.21,-173 1083.21,-173"/>
<polygon fill="black" stroke="black" points="1083.21,-176.5 1093.21,-173 1083.21,-169.5 1083.21,-176.5"/>
</g>
<!-- WorkoutsModule -->
<g id="node16" class="node">
<title>WorkoutsModule</title>
<polygon fill="#8dd3c7" stroke="black" points="444.26,-122 441.26,-126 420.26,-126 417.26,-122 329.74,-122 329.74,-86 444.26,-86 444.26,-122"/>
<text text-anchor="middle" x="387" y="-99.8" font-family="Times,serif" font-size="14.00">WorkoutsModule</text>
</g>
<!-- WorkoutsModule&#45;&gt;AppModule -->
<g id="edge17" class="edge">
<title>WorkoutsModule&#45;&gt;AppModule</title>
<path fill="none" stroke="black" d="M387,-122.04C387,-143.66 387,-177 387,-177 387,-177 1083.18,-177 1083.18,-177"/>
<polygon fill="black" stroke="black" points="1083.18,-180.5 1093.18,-177 1083.18,-173.5 1083.18,-180.5"/>
</g>
<!-- AppService -->
<g id="node18" class="node">
<title>AppService</title>
<ellipse fill="#fdb462" stroke="black" cx="249" cy="-104" rx="56.74" ry="18"/>
<text text-anchor="middle" x="249" y="-99.8" font-family="Times,serif" font-size="14.00">AppService</text>
</g>
<!-- AppService&#45;&gt;AppModule -->
<g id="edge18" class="edge">
<title>AppService&#45;&gt;AppModule</title>
<path fill="none" stroke="black" d="M249,-122.01C249,-144.49 249,-180 249,-180 249,-180 1083.16,-180 1083.16,-180"/>
<polygon fill="black" stroke="black" points="1083.16,-183.5 1093.16,-180 1083.16,-176.5 1083.16,-183.5"/>
</g>
<!-- NutritionService -->
<g id="node19" class="node">
<title>NutritionService</title>
<ellipse fill="#fdb462" stroke="black" cx="99" cy="-104" rx="75.3" ry="18"/>
<text text-anchor="middle" x="99" y="-99.8" font-family="Times,serif" font-size="14.00">NutritionService</text>
</g>
<!-- NutritionService&#45;&gt;AppModule -->
<g id="edge19" class="edge">
<title>NutritionService&#45;&gt;AppModule</title>
<path fill="none" stroke="black" d="M99,-122.15C99,-145.76 99,-184 99,-184 99,-184 1083.1,-184 1083.1,-184"/>
<polygon fill="black" stroke="black" points="1083.1,-187.5 1093.1,-184 1083.1,-180.5 1083.1,-187.5"/>
</g>
</g>
</svg>
