<?xml version="1.0" encoding="UTF-8" standalone="no"?>
<!DOCTYPE svg PUBLIC "-//W3C//DTD SVG 1.1//EN"
 "http://www.w3.org/Graphics/SVG/1.1/DTD/svg11.dtd">
<!-- Generated by graphviz version 2.47.0 (20210316.0004)
 -->
<!-- Title: dependencies Pages: 1 -->
<svg width="504pt" height="211pt"
 viewBox="0.00 0.00 504.00 211.00" xmlns="http://www.w3.org/2000/svg" xmlns:xlink="http://www.w3.org/1999/xlink">
<g id="graph0" class="graph" transform="scale(1 1) rotate(0) translate(4 207)">
<title>dependencies</title>
<polygon fill="white" stroke="transparent" points="-4,4 -4,-207 500,-207 500,4 -4,4"/>
<text text-anchor="start" x="227.01" y="-42.4" font-family="Times-12" font-weight="bold" font-size="14.00">Legend</text>
<polygon fill="#ffffb3" stroke="transparent" points="14,-10 14,-30 34,-30 34,-10 14,-10"/>
<text text-anchor="start" x="37.63" y="-15.4" font-family="Times-12" font-size="14.00"> &#160;Declarations</text>
<polygon fill="#8dd3c7" stroke="transparent" points="127,-10 127,-30 147,-30 147,-10 127,-10"/>
<text text-anchor="start" x="150.73" y="-15.4" font-family="Times-12" font-size="14.00"> &#160;Module</text>
<polygon fill="#80b1d3" stroke="transparent" points="213,-10 213,-30 233,-30 233,-10 213,-10"/>
<text text-anchor="start" x="236.78" y="-15.4" font-family="Times-12" font-size="14.00"> &#160;Bootstrap</text>
<polygon fill="#fdb462" stroke="transparent" points="310,-10 310,-30 330,-30 330,-10 310,-10"/>
<text text-anchor="start" x="333.67" y="-15.4" font-family="Times-12" font-size="14.00"> &#160;Providers</text>
<polygon fill="#fb8072" stroke="transparent" points="406,-10 406,-30 426,-30 426,-10 406,-10"/>
<text text-anchor="start" x="429.73" y="-15.4" font-family="Times-12" font-size="14.00"> &#160;Exports</text>
<g id="clust1" class="cluster">
<title>cluster_FormModule</title>
<polygon fill="none" stroke="black" stroke-dasharray="1,5" points="110,-70 110,-195 386,-195 386,-70 110,-70"/>
</g>
<g id="clust6" class="cluster">
<title>cluster_FormModule_providers</title>
<polygon fill="none" stroke="black" points="240,-78 240,-130 378,-130 378,-78 240,-78"/>
</g>
<g id="clust3" class="cluster">
<title>cluster_FormModule_imports</title>
<polygon fill="none" stroke="black" points="118,-78 118,-130 232,-130 232,-78 118,-78"/>
</g>
<!-- PrismaModule -->
<g id="node1" class="node">
<title>PrismaModule</title>
<polygon fill="#8dd3c7" stroke="black" points="224.43,-122 221.43,-126 200.43,-126 197.43,-122 125.57,-122 125.57,-86 224.43,-86 224.43,-122"/>
<text text-anchor="middle" x="175" y="-99.8" font-family="Times,serif" font-size="14.00">PrismaModule</text>
</g>
<!-- FormModule -->
<g id="node2" class="node">
<title>FormModule</title>
<polygon fill="#8dd3c7" stroke="black" points="286.88,-187 283.88,-191 262.88,-191 259.88,-187 197.12,-187 197.12,-151 286.88,-151 286.88,-187"/>
<text text-anchor="middle" x="242" y="-164.8" font-family="Times,serif" font-size="14.00">FormModule</text>
</g>
<!-- PrismaModule&#45;&gt;FormModule -->
<g id="edge1" class="edge">
<title>PrismaModule&#45;&gt;FormModule</title>
<path fill="none" stroke="black" d="M210.64,-122.11C210.64,-122.11 210.64,-140.99 210.64,-140.99"/>
<polygon fill="black" stroke="black" points="207.14,-140.99 210.64,-150.99 214.14,-140.99 207.14,-140.99"/>
</g>
<!-- FormService -->
<g id="node3" class="node">
<title>FormService</title>
<ellipse fill="#fdb462" stroke="black" cx="309" cy="-104" rx="60.83" ry="18"/>
<text text-anchor="middle" x="309" y="-99.8" font-family="Times,serif" font-size="14.00">FormService</text>
</g>
<!-- FormService&#45;&gt;FormModule -->
<g id="edge2" class="edge">
<title>FormService&#45;&gt;FormModule</title>
<path fill="none" stroke="black" d="M267.51,-117.47C267.51,-117.47 267.51,-140.86 267.51,-140.86"/>
<polygon fill="black" stroke="black" points="264.01,-140.86 267.51,-150.86 271.01,-140.86 264.01,-140.86"/>
</g>
</g>
</svg>
