<?xml version="1.0" encoding="UTF-8" standalone="no"?>
<!DOCTYPE svg PUBLIC "-//W3C//DTD SVG 1.1//EN"
 "http://www.w3.org/Graphics/SVG/1.1/DTD/svg11.dtd">
<!-- Generated by graphviz version 2.47.0 (20210316.0004)
 -->
<!-- Title: dependencies Pages: 1 -->
<svg width="504pt" height="284pt"
 viewBox="0.00 0.00 504.00 284.00" xmlns="http://www.w3.org/2000/svg" xmlns:xlink="http://www.w3.org/1999/xlink">
<g id="graph0" class="graph" transform="scale(1 1) rotate(0) translate(4 280)">
<title>dependencies</title>
<polygon fill="white" stroke="transparent" points="-4,4 -4,-280 500,-280 500,4 -4,4"/>
<text text-anchor="start" x="227.01" y="-42.4" font-family="Times-12" font-weight="bold" font-size="14.00">Legend</text>
<polygon fill="#ffffb3" stroke="transparent" points="14,-10 14,-30 34,-30 34,-10 14,-10"/>
<text text-anchor="start" x="37.63" y="-15.4" font-family="Times-12" font-size="14.00"> &#160;Declarations</text>
<polygon fill="#8dd3c7" stroke="transparent" points="127,-10 127,-30 147,-30 147,-10 127,-10"/>
<text text-anchor="start" x="150.73" y="-15.4" font-family="Times-12" font-size="14.00"> &#160;Module</text>
<polygon fill="#80b1d3" stroke="transparent" points="213,-10 213,-30 233,-30 233,-10 213,-10"/>
<text text-anchor="start" x="236.78" y="-15.4" font-family="Times-12" font-size="14.00"> &#160;Bootstrap</text>
<polygon fill="#fdb462" stroke="transparent" points="310,-10 310,-30 330,-30 330,-10 310,-10"/>
<text text-anchor="start" x="333.67" y="-15.4" font-family="Times-12" font-size="14.00"> &#160;Providers</text>
<polygon fill="#fb8072" stroke="transparent" points="406,-10 406,-30 426,-30 426,-10 406,-10"/>
<text text-anchor="start" x="429.73" y="-15.4" font-family="Times-12" font-size="14.00"> &#160;Exports</text>
<g id="clust1" class="cluster">
<title>cluster_UserInfosModule</title>
<polygon fill="none" stroke="black" stroke-dasharray="1,5" points="105,-70 105,-268 391,-268 391,-70 105,-70"/>
</g>
<g id="clust4" class="cluster">
<title>cluster_UserInfosModule_exports</title>
<polygon fill="none" stroke="black" points="193,-208 193,-260 321,-260 321,-208 193,-208"/>
</g>
<g id="clust3" class="cluster">
<title>cluster_UserInfosModule_imports</title>
<polygon fill="none" stroke="black" points="285,-78 285,-130 383,-130 383,-78 285,-78"/>
</g>
<g id="clust6" class="cluster">
<title>cluster_UserInfosModule_providers</title>
<polygon fill="none" stroke="black" points="113,-78 113,-130 277,-130 277,-78 113,-78"/>
</g>
<!-- FileModule -->
<g id="node1" class="node">
<title>FileModule</title>
<polygon fill="#8dd3c7" stroke="black" points="374.83,-122 371.83,-126 350.83,-126 347.83,-122 293.17,-122 293.17,-86 374.83,-86 374.83,-122"/>
<text text-anchor="middle" x="334" y="-99.8" font-family="Times,serif" font-size="14.00">FileModule</text>
</g>
<!-- UserInfosModule -->
<g id="node2" class="node">
<title>UserInfosModule</title>
<polygon fill="#8dd3c7" stroke="black" points="314.24,-187 311.24,-191 290.24,-191 287.24,-187 199.76,-187 199.76,-151 314.24,-151 314.24,-187"/>
<text text-anchor="middle" x="257" y="-164.8" font-family="Times,serif" font-size="14.00">UserInfosModule</text>
</g>
<!-- FileModule&#45;&gt;UserInfosModule -->
<g id="edge1" class="edge">
<title>FileModule&#45;&gt;UserInfosModule</title>
<path fill="none" stroke="black" d="M303.85,-122.11C303.85,-122.11 303.85,-140.99 303.85,-140.99"/>
<polygon fill="black" stroke="black" points="300.35,-140.99 303.85,-150.99 307.35,-140.99 300.35,-140.99"/>
</g>
<!-- UserInfoService  -->
<g id="node3" class="node">
<title>UserInfoService </title>
<polygon fill="#fb8072" stroke="black" points="312.73,-252 201.27,-252 201.27,-216 312.73,-216 312.73,-252"/>
<text text-anchor="middle" x="257" y="-229.8" font-family="Times,serif" font-size="14.00">UserInfoService </text>
</g>
<!-- UserInfosModule&#45;&gt;UserInfoService  -->
<g id="edge2" class="edge">
<title>UserInfosModule&#45;&gt;UserInfoService </title>
<path fill="none" stroke="black" stroke-dasharray="5,2" d="M257,-187.11C257,-187.11 257,-205.99 257,-205.99"/>
<polygon fill="black" stroke="black" points="253.5,-205.99 257,-215.99 260.5,-205.99 253.5,-205.99"/>
</g>
<!-- UserInfoService -->
<g id="node4" class="node">
<title>UserInfoService</title>
<ellipse fill="#fdb462" stroke="black" cx="195" cy="-104" rx="74.11" ry="18"/>
<text text-anchor="middle" x="195" y="-99.8" font-family="Times,serif" font-size="14.00">UserInfoService</text>
</g>
<!-- UserInfoService&#45;&gt;UserInfosModule -->
<g id="edge3" class="edge">
<title>UserInfoService&#45;&gt;UserInfosModule</title>
<path fill="none" stroke="black" d="M234.47,-119.4C234.47,-119.4 234.47,-140.94 234.47,-140.94"/>
<polygon fill="black" stroke="black" points="230.97,-140.94 234.47,-150.94 237.97,-140.94 230.97,-140.94"/>
</g>
</g>
</svg>
