<?xml version="1.0" encoding="UTF-8" standalone="no"?>
<!DOCTYPE svg PUBLIC "-//W3C//DTD SVG 1.1//EN"
 "http://www.w3.org/Graphics/SVG/1.1/DTD/svg11.dtd">
<!-- Generated by graphviz version 2.47.0 (20210316.0004)
 -->
<!-- Title: dependencies Pages: 1 -->
<svg width="504pt" height="284pt"
 viewBox="0.00 0.00 504.00 284.00" xmlns="http://www.w3.org/2000/svg" xmlns:xlink="http://www.w3.org/1999/xlink">
<g id="graph0" class="graph" transform="scale(1 1) rotate(0) translate(4 280)">
<title>dependencies</title>
<polygon fill="white" stroke="transparent" points="-4,4 -4,-280 500,-280 500,4 -4,4"/>
<text text-anchor="start" x="227.01" y="-42.4" font-family="Times-12" font-weight="bold" font-size="14.00">Legend</text>
<polygon fill="#ffffb3" stroke="transparent" points="14,-10 14,-30 34,-30 34,-10 14,-10"/>
<text text-anchor="start" x="37.63" y="-15.4" font-family="Times-12" font-size="14.00"> &#160;Declarations</text>
<polygon fill="#8dd3c7" stroke="transparent" points="127,-10 127,-30 147,-30 147,-10 127,-10"/>
<text text-anchor="start" x="150.73" y="-15.4" font-family="Times-12" font-size="14.00"> &#160;Module</text>
<polygon fill="#80b1d3" stroke="transparent" points="213,-10 213,-30 233,-30 233,-10 213,-10"/>
<text text-anchor="start" x="236.78" y="-15.4" font-family="Times-12" font-size="14.00"> &#160;Bootstrap</text>
<polygon fill="#fdb462" stroke="transparent" points="310,-10 310,-30 330,-30 330,-10 310,-10"/>
<text text-anchor="start" x="333.67" y="-15.4" font-family="Times-12" font-size="14.00"> &#160;Providers</text>
<polygon fill="#fb8072" stroke="transparent" points="406,-10 406,-30 426,-30 426,-10 406,-10"/>
<text text-anchor="start" x="429.73" y="-15.4" font-family="Times-12" font-size="14.00"> &#160;Exports</text>
<g id="clust1" class="cluster">
<title>cluster_UserInfosModule</title>
<polygon fill="none" stroke="black" stroke-dasharray="1,5" points="105,-70 105,-268 391,-268 391,-70 105,-70"/>
</g>
<g id="clust6" class="cluster">
<title>cluster_UserInfosModule_providers</title>
<polygon fill="none" stroke="black" points="219,-78 219,-130 383,-130 383,-78 219,-78"/>
</g>
<g id="clust4" class="cluster">
<title>cluster_UserInfosModule_exports</title>
<polygon fill="none" stroke="black" points="175,-208 175,-260 303,-260 303,-208 175,-208"/>
</g>
<g id="clust3" class="cluster">
<title>cluster_UserInfosModule_imports</title>
<polygon fill="none" stroke="black" points="113,-78 113,-130 211,-130 211,-78 113,-78"/>
</g>
<!-- FileModule -->
<g id="node1" class="node">
<title>FileModule</title>
<polygon fill="#8dd3c7" stroke="black" points="202.83,-122 199.83,-126 178.83,-126 175.83,-122 121.17,-122 121.17,-86 202.83,-86 202.83,-122"/>
<text text-anchor="middle" x="162" y="-99.8" font-family="Times,serif" font-size="14.00">FileModule</text>
</g>
<!-- UserInfosModule -->
<g id="node2" class="node">
<title>UserInfosModule</title>
<polygon fill="#8dd3c7" stroke="black" points="296.24,-187 293.24,-191 272.24,-191 269.24,-187 181.76,-187 181.76,-151 296.24,-151 296.24,-187"/>
<text text-anchor="middle" x="239" y="-164.8" font-family="Times,serif" font-size="14.00">UserInfosModule</text>
</g>
<!-- FileModule&#45;&gt;UserInfosModule -->
<g id="edge1" class="edge">
<title>FileModule&#45;&gt;UserInfosModule</title>
<path fill="none" stroke="black" d="M192.15,-122.11C192.15,-122.11 192.15,-140.99 192.15,-140.99"/>
<polygon fill="black" stroke="black" points="188.65,-140.99 192.15,-150.99 195.65,-140.99 188.65,-140.99"/>
</g>
<!-- UserInfoService  -->
<g id="node3" class="node">
<title>UserInfoService </title>
<polygon fill="#fb8072" stroke="black" points="294.73,-252 183.27,-252 183.27,-216 294.73,-216 294.73,-252"/>
<text text-anchor="middle" x="239" y="-229.8" font-family="Times,serif" font-size="14.00">UserInfoService </text>
</g>
<!-- UserInfosModule&#45;&gt;UserInfoService  -->
<g id="edge2" class="edge">
<title>UserInfosModule&#45;&gt;UserInfoService </title>
<path fill="none" stroke="black" stroke-dasharray="5,2" d="M239,-187.11C239,-187.11 239,-205.99 239,-205.99"/>
<polygon fill="black" stroke="black" points="235.5,-205.99 239,-215.99 242.5,-205.99 235.5,-205.99"/>
</g>
<!-- UserInfoService -->
<g id="node4" class="node">
<title>UserInfoService</title>
<ellipse fill="#fdb462" stroke="black" cx="301" cy="-104" rx="74.11" ry="18"/>
<text text-anchor="middle" x="301" y="-99.8" font-family="Times,serif" font-size="14.00">UserInfoService</text>
</g>
<!-- UserInfoService&#45;&gt;UserInfosModule -->
<g id="edge3" class="edge">
<title>UserInfoService&#45;&gt;UserInfosModule</title>
<path fill="none" stroke="black" d="M261.53,-119.4C261.53,-119.4 261.53,-140.94 261.53,-140.94"/>
<polygon fill="black" stroke="black" points="258.03,-140.94 261.53,-150.94 265.03,-140.94 258.03,-140.94"/>
</g>
</g>
</svg>
